{"asset": {"generator": "OpenSceneGraph 3.5.6", "version": "2.0"}, "accessors": [{"type": "VEC3", "componentType": 5126, "count": 5233, "max": [0.8771453499794006, 2.071925401687622, 0.8080736398696899], "min": [-0.667087972164154, -1.9126399755477905, 0.1938299983739853], "bufferView": 0, "byteOffset": 0}, {"type": "VEC3", "componentType": 5126, "count": 5233, "bufferView": 0, "byteOffset": 12}, {"type": "SCALAR", "componentType": 5123, "count": 12104, "bufferView": 1, "byteOffset": 0}, {"type": "SCALAR", "componentType": 5123, "count": 6848, "bufferView": 1, "byteOffset": 24208}, {"type": "SCALAR", "componentType": 5123, "count": 28624, "bufferView": 1, "byteOffset": 37904}, {"type": "SCALAR", "componentType": 5123, "count": 24, "bufferView": 1, "byteOffset": 95152}, {"type": "SCALAR", "componentType": 5123, "count": 7706, "bufferView": 1, "byteOffset": 95200}, {"type": "SCALAR", "componentType": 5123, "count": 33880, "bufferView": 1, "byteOffset": 110612}, {"type": "SCALAR", "componentType": 5123, "count": 46197, "bufferView": 1, "byteOffset": 178372}, {"type": "SCALAR", "componentType": 5123, "count": 14838, "bufferView": 1, "byteOffset": 270768}, {"type": "SCALAR", "componentType": 5123, "count": 7085, "bufferView": 1, "byteOffset": 300444}, {"type": "SCALAR", "componentType": 5123, "count": 102604, "bufferView": 1, "byteOffset": 314616}, {"type": "SCALAR", "componentType": 5123, "count": 77891, "bufferView": 1, "byteOffset": 519824}, {"type": "SCALAR", "componentType": 5123, "count": 7397, "bufferView": 1, "byteOffset": 675608}, {"type": "SCALAR", "componentType": 5123, "count": 75294, "bufferView": 1, "byteOffset": 690404}, {"type": "SCALAR", "componentType": 5123, "count": 4172, "bufferView": 1, "byteOffset": 840992}, {"type": "SCALAR", "componentType": 5123, "count": 6634, "bufferView": 1, "byteOffset": 849336}, {"type": "SCALAR", "componentType": 5123, "count": 60751, "bufferView": 1, "byteOffset": 862604}, {"type": "SCALAR", "componentType": 5123, "count": 3645, "bufferView": 1, "byteOffset": 984108}, {"type": "SCALAR", "componentType": 5123, "count": 111558, "bufferView": 1, "byteOffset": 991400}, {"type": "SCALAR", "componentType": 5123, "count": 62199, "bufferView": 1, "byteOffset": 1214516}, {"type": "SCALAR", "componentType": 5123, "count": 9274, "bufferView": 1, "byteOffset": 1338916}, {"type": "SCALAR", "componentType": 5123, "count": 3086, "bufferView": 1, "byteOffset": 1357464}, {"type": "SCALAR", "componentType": 5123, "count": 10726, "bufferView": 1, "byteOffset": 1363636}, {"type": "SCALAR", "componentType": 5123, "count": 3060, "bufferView": 1, "byteOffset": 1385088}, {"type": "SCALAR", "componentType": 5123, "count": 111558, "bufferView": 1, "byteOffset": 1391208}, {"type": "SCALAR", "componentType": 5123, "count": 62199, "bufferView": 1, "byteOffset": 1614324}, {"type": "SCALAR", "componentType": 5123, "count": 9274, "bufferView": 1, "byteOffset": 1738724}, {"type": "SCALAR", "componentType": 5123, "count": 3086, "bufferView": 1, "byteOffset": 1757272}, {"type": "SCALAR", "componentType": 5123, "count": 10959, "bufferView": 1, "byteOffset": 1763444}, {"type": "SCALAR", "componentType": 5123, "count": 3089, "bufferView": 1, "byteOffset": 1785364}, {"type": "SCALAR", "componentType": 5123, "count": 10959, "bufferView": 1, "byteOffset": 1791544}, {"type": "SCALAR", "componentType": 5123, "count": 3085, "bufferView": 1, "byteOffset": 1813464}, {"type": "SCALAR", "componentType": 5123, "count": 113842, "bufferView": 1, "byteOffset": 1819636}, {"type": "SCALAR", "componentType": 5123, "count": 3086, "bufferView": 1, "byteOffset": 2047320}, {"type": "SCALAR", "componentType": 5123, "count": 62199, "bufferView": 1, "byteOffset": 2053492}, {"type": "SCALAR", "componentType": 5123, "count": 10260, "bufferView": 1, "byteOffset": 2177892}, {"type": "SCALAR", "componentType": 5123, "count": 10726, "bufferView": 1, "byteOffset": 2198412}, {"type": "SCALAR", "componentType": 5123, "count": 3090, "bufferView": 1, "byteOffset": 2219864}, {"type": "SCALAR", "componentType": 5123, "count": 111558, "bufferView": 1, "byteOffset": 2226044}, {"type": "SCALAR", "componentType": 5123, "count": 3086, "bufferView": 1, "byteOffset": 2449160}, {"type": "SCALAR", "componentType": 5123, "count": 62199, "bufferView": 1, "byteOffset": 2455332}, {"type": "SCALAR", "componentType": 5123, "count": 9274, "bufferView": 1, "byteOffset": 2579732}, {"type": "SCALAR", "componentType": 5123, "count": 159275, "bufferView": 1, "byteOffset": 2598280}, {"type": "SCALAR", "componentType": 5123, "count": 57164, "bufferView": 1, "byteOffset": 2916832}, {"type": "SCALAR", "componentType": 5123, "count": 154860, "bufferView": 1, "byteOffset": 3031160}, {"type": "SCALAR", "componentType": 5123, "count": 101626, "bufferView": 1, "byteOffset": 3340880}, {"type": "SCALAR", "componentType": 5123, "count": 5065, "bufferView": 1, "byteOffset": 3544132}, {"type": "SCALAR", "componentType": 5123, "count": 14, "bufferView": 1, "byteOffset": 3554264}, {"type": "VEC3", "componentType": 5126, "count": 3205, "max": [0.6723793745040894, 2.076137065887451, 0.8111864924430847], "min": [-0.6723750233650208, 1.9051899909973145, 0.3181479871273041], "bufferView": 2, "byteOffset": 0}, {"type": "VEC3", "componentType": 5126, "count": 3205, "bufferView": 2, "byteOffset": 12}, {"type": "VEC3", "componentType": 5126, "count": 14497, "max": [0.36260631680488586, 2.1209805011749268, 0.9089088439941406], "min": [-0.3662259876728058, -2.1745500564575195, 0.6164169907569885], "bufferView": 3, "byteOffset": 0}, {"type": "VEC3", "componentType": 5126, "count": 14497, "bufferView": 3, "byteOffset": 12}, {"type": "VEC3", "componentType": 5126, "count": 18, "max": [0.2638135850429535, 2.208014965057373, 0.6476260423660278], "min": [-0.26381298899650574, 2.187849998474121, 0.5330460071563721], "bufferView": 4, "byteOffset": 0}, {"type": "VEC3", "componentType": 5126, "count": 18, "bufferView": 4, "byteOffset": 12}, {"type": "VEC3", "componentType": 5126, "count": 3408, "max": [0.270000159740448, 2.2109029293060303, 0.6563020348548889], "min": [-0.27000001072883606, 2.178770065307617, 0.5159400105476379], "bufferView": 5, "byteOffset": 0}, {"type": "VEC3", "componentType": 5126, "count": 3408, "bufferView": 5, "byteOffset": 12}, {"type": "VEC3", "componentType": 5126, "count": 14874, "max": [0.876407265663147, 2.211050271987915, 0.9843550324440002], "min": [-0.8764100074768066, -2.0842599868774414, 0.3034529983997345], "bufferView": 6, "byteOffset": 0}, {"type": "VEC3", "componentType": 5126, "count": 14874, "bufferView": 6, "byteOffset": 12}, {"type": "VEC3", "componentType": 5126, "count": 19485, "max": [0.7958486080169678, 2.2120697498321533, 0.932346761226654], "min": [-0.7958499789237976, -2.1008200645446777, 0.343735009431839], "bufferView": 7, "byteOffset": 0}, {"type": "VEC3", "componentType": 5126, "count": 19485, "bufferView": 7, "byteOffset": 12}, {"type": "VEC3", "componentType": 5126, "count": 5806, "max": [0.6989814639091492, 2.171680212020874, 0.9845443964004517], "min": [-0.6972039937973022, 1.8462799787521362, 0.30427199602127075], "bufferView": 8, "byteOffset": 0}, {"type": "VEC3", "componentType": 5126, "count": 5806, "bufferView": 8, "byteOffset": 12}, {"type": "VEC3", "componentType": 5126, "count": 2874, "max": [0.8854631185531616, 1.9227491617202759, 0.8560763597488403], "min": [-0.8854629993438721, -1.8017699718475342, 0.599407970905304], "bufferView": 9, "byteOffset": 0}, {"type": "VEC3", "componentType": 5126, "count": 2874, "bufferView": 9, "byteOffset": 12}, {"type": "VEC3", "componentType": 5126, "count": 45309, "max": [0.7966564297676086, 2.2128896713256836, 0.9359636306762695], "min": [-0.7966570258140564, -2.1088500022888184, 0.3248179852962494], "bufferView": 10, "byteOffset": 0}, {"type": "VEC3", "componentType": 5126, "count": 45309, "bufferView": 10, "byteOffset": 12}, {"type": "VEC3", "componentType": 5126, "count": 36973, "max": [0.7997632622718811, 2.0645859241485596, 0.913219690322876], "min": [-0.799763023853302, -1.975250005722046, 0.5977299809455872], "bufferView": 11, "byteOffset": 0}, {"type": "VEC3", "componentType": 5126, "count": 36973, "bufferView": 11, "byteOffset": 12}, {"type": "VEC3", "componentType": 5126, "count": 2932, "max": [0.734748363494873, 1.7477612495422363, 1.2573020458221436], "min": [-0.734749972820282, -0.9359970092773438, 0.8685150146484375], "bufferView": 12, "byteOffset": 0}, {"type": "VEC3", "componentType": 5126, "count": 2932, "bufferView": 12, "byteOffset": 12}, {"type": "VEC3", "componentType": 5126, "count": 30886, "max": [0.9328449964523315, 0.9368768930435181, 1.2599232196807861], "min": [-0.9328460097312927, -1.0686099529266357, 0.8547490239143372], "bufferView": 13, "byteOffset": 0}, {"type": "VEC3", "componentType": 5126, "count": 30886, "bufferView": 13, "byteOffset": 12}, {"type": "VEC3", "componentType": 5126, "count": 2032, "max": [0.7279274463653564, 1.7468217611312866, 1.2527592182159424], "min": [-0.7274090051651001, -0.932561993598938, 0.8650469779968262], "bufferView": 14, "byteOffset": 0}, {"type": "VEC3", "componentType": 5126, "count": 2032, "bufferView": 14, "byteOffset": 12}, {"type": "VEC3", "componentType": 5126, "count": 2967, "max": [0.34890130162239075, -0.7409040331840515, 0.9152010083198547], "min": [-0.648015022277832, -0.9112989902496338, 0.8891749978065491], "bufferView": 15, "byteOffset": 0}, {"type": "VEC3", "componentType": 5126, "count": 2967, "bufferView": 15, "byteOffset": 12}, {"type": "VEC3", "componentType": 5126, "count": 25960, "max": [0.597901463508606, -0.7477737665176392, 0.9310640096664429], "min": [-0.6352419853210449, -0.9926729798316956, 0.8585109710693359], "bufferView": 16, "byteOffset": 0}, {"type": "VEC3", "componentType": 5126, "count": 25960, "bufferView": 16, "byteOffset": 12}, {"type": "VEC3", "componentType": 5126, "count": 1458, "max": [0.9277189373970032, -0.27499499917030334, 1.0313078165054321], "min": [-0.927718997001648, -0.3579060137271881, 0.9159680008888245], "bufferView": 17, "byteOffset": 0}, {"type": "VEC3", "componentType": 5126, "count": 1458, "bufferView": 17, "byteOffset": 12}, {"type": "VEC3", "componentType": 5126, "count": 54783, "max": [0.18942709267139435, 0.3351653218269348, 0.3346233069896698], "min": [-0.0620959997177124, -0.3340809941291809, -0.3346230089664459], "bufferView": 18, "byteOffset": 0}, {"type": "VEC3", "componentType": 5126, "count": 54783, "bufferView": 18, "byteOffset": 12}, {"type": "VEC3", "componentType": 5126, "count": 25436, "max": [0.1879161298274994, 0.25117164850234985, 0.2529563903808594], "min": [-0.054232001304626465, -0.25225400924682617, -0.25169798731803894], "bufferView": 19, "byteOffset": 0}, {"type": "VEC3", "componentType": 5126, "count": 25436, "bufferView": 19, "byteOffset": 12}, {"type": "VEC3", "componentType": 5126, "count": 3473, "max": [0.1650710105895996, 0.04878808930516243, 0.05242914706468582], "min": [0.1416119933128357, -0.0514690987765789, -0.044659800827503204], "bufferView": 20, "byteOffset": 0}, {"type": "VEC3", "componentType": 5126, "count": 3473, "bufferView": 20, "byteOffset": 12}, {"type": "VEC3", "componentType": 5126, "count": 1687, "max": [0.09765012562274933, 0.15266866981983185, 0.15312567353248596], "min": [0.05295899882912636, -0.15358300507068634, -0.15312600135803223], "bufferView": 21, "byteOffset": 0}, {"type": "VEC3", "componentType": 5126, "count": 1687, "bufferView": 21, "byteOffset": 12}, {"type": "VEC3", "componentType": 5126, "count": 4436, "max": [0.09788297116756439, -0.05094508081674576, 0.1334635317325592], "min": [0.017632000148296356, -0.17879700660705566, -0.04254079982638359], "bufferView": 22, "byteOffset": 0}, {"type": "VEC3", "componentType": 5126, "count": 4436, "bufferView": 22, "byteOffset": 12}, {"type": "VEC3", "componentType": 5126, "count": 1371, "max": [0.08505786955356598, 0.1593628227710724, 0.16175898909568787], "min": [0.046112000942230225, -0.16025599837303162, -0.1515820026397705], "bufferView": 23, "byteOffset": 0}, {"type": "VEC3", "componentType": 5126, "count": 1371, "bufferView": 23, "byteOffset": 12}, {"type": "VEC3", "componentType": 5126, "count": 54783, "max": [-0.6379039287567139, 0.3351653218269348, 0.334622323513031], "min": [-0.8894270062446594, -0.3340809941291809, -0.3346239924430847], "bufferView": 24, "byteOffset": 0}, {"type": "VEC3", "componentType": 5126, "count": 54783, "bufferView": 24, "byteOffset": 12}, {"type": "VEC3", "componentType": 5126, "count": 25436, "max": [-0.6457671523094177, 0.25180062651634216, 0.25295740365982056], "min": [-0.8879140019416809, -0.2516250014305115, -0.25169700384140015], "bufferView": 25, "byteOffset": 0}, {"type": "VEC3", "componentType": 5126, "count": 25436, "bufferView": 25, "byteOffset": 12}, {"type": "VEC3", "componentType": 5126, "count": 3473, "max": [-0.841611921787262, 0.05069999024271965, 0.05242914706468582], "min": [-0.8650699853897095, -0.04955720156431198, -0.044659800827503204], "bufferView": 26, "byteOffset": 0}, {"type": "VEC3", "componentType": 5126, "count": 3473, "bufferView": 26, "byteOffset": 12}, {"type": "VEC3", "componentType": 5126, "count": 1687, "max": [-0.7529578804969788, 0.1531306654214859, 0.15312567353248596], "min": [-0.797648012638092, -0.1531209945678711, -0.15312600135803223], "bufferView": 27, "byteOffset": 0}, {"type": "VEC3", "componentType": 5126, "count": 1687, "bufferView": 27, "byteOffset": 12}, {"type": "VEC3", "componentType": 5126, "count": 4436, "max": [-0.7176320552825928, -0.05094508081674576, 0.1334635317325592], "min": [-0.7978829741477966, -0.17879700660705566, -0.04254079982638359], "bufferView": 28, "byteOffset": 0}, {"type": "VEC3", "componentType": 5126, "count": 4436, "bufferView": 28, "byteOffset": 12}, {"type": "VEC3", "componentType": 5126, "count": 1374, "max": [-0.7461121082305908, 0.1593628227710724, 0.16175898909568787], "min": [-0.7850580215454102, -0.16025599837303162, -0.1515820026397705], "bufferView": 29, "byteOffset": 0}, {"type": "VEC3", "componentType": 5126, "count": 1374, "bufferView": 29, "byteOffset": 12}, {"type": "VEC3", "componentType": 5126, "count": 4436, "max": [0.09788297116756439, 0.1768990457057953, 0.08767686784267426], "min": [0.017633000388741493, 0.07725600153207779, -0.08806320279836655], "bufferView": 30, "byteOffset": 0}, {"type": "VEC3", "componentType": 5126, "count": 4436, "bufferView": 30, "byteOffset": 12}, {"type": "VEC3", "componentType": 5126, "count": 1371, "max": [0.08505887538194656, 0.15127088129520416, 0.16175799071788788], "min": [0.04611299932003021, -0.1593569964170456, -0.1515830010175705], "bufferView": 31, "byteOffset": 0}, {"type": "VEC3", "componentType": 5126, "count": 1371, "bufferView": 31, "byteOffset": 12}, {"type": "VEC3", "componentType": 5126, "count": 56833, "max": [0.18942710757255554, 0.3356233239173889, 0.3346233069896698], "min": [-0.062095001339912415, -0.3336229920387268, -0.3346230089664459], "bufferView": 32, "byteOffset": 0}, {"type": "VEC3", "componentType": 5126, "count": 56833, "bufferView": 32, "byteOffset": 12}, {"type": "VEC3", "componentType": 5126, "count": 1687, "max": [0.09764910489320755, 0.15312667191028595, 0.15312567353248596], "min": [0.05295899882912636, -0.15312500298023224, -0.15312600135803223], "bufferView": 33, "byteOffset": 0}, {"type": "VEC3", "componentType": 5126, "count": 1687, "bufferView": 33, "byteOffset": 12}, {"type": "VEC3", "componentType": 5126, "count": 25436, "max": [0.18791481852531433, 0.25162962079048157, 0.2529563903808594], "min": [-0.054232001304626465, -0.25179600715637207, -0.25169798731803894], "bufferView": 34, "byteOffset": 0}, {"type": "VEC3", "componentType": 5126, "count": 25436, "bufferView": 34, "byteOffset": 12}, {"type": "VEC3", "componentType": 5126, "count": 4248, "max": [0.16507001221179962, 0.04924618825316429, 0.05242973193526268], "min": [0.1416109949350357, -0.05101099982857704, -0.04466019943356514], "bufferView": 35, "byteOffset": 0}, {"type": "VEC3", "componentType": 5126, "count": 4248, "bufferView": 35, "byteOffset": 12}, {"type": "VEC3", "componentType": 5126, "count": 4436, "max": [-0.017633026465773582, 0.1768990457057953, 0.08767686784267426], "min": [-0.09788300096988678, 0.07725600153207779, -0.08806320279836655], "bufferView": 36, "byteOffset": 0}, {"type": "VEC3", "componentType": 5126, "count": 4436, "bufferView": 36, "byteOffset": 12}, {"type": "VEC3", "componentType": 5126, "count": 1375, "max": [-0.046112798154354095, 0.15127110481262207, 0.1612175554037094], "min": [-0.08505900204181671, -0.15971000492572784, -0.1525149941444397], "bufferView": 37, "byteOffset": 0}, {"type": "VEC3", "componentType": 5126, "count": 1375, "bufferView": 37, "byteOffset": 12}, {"type": "VEC3", "componentType": 5126, "count": 54783, "max": [0.06209609657526016, 0.3356233239173889, 0.334622323513031], "min": [-0.18942700326442719, -0.3336229920387268, -0.3346239924430847], "bufferView": 38, "byteOffset": 0}, {"type": "VEC3", "componentType": 5126, "count": 54783, "bufferView": 38, "byteOffset": 12}, {"type": "VEC3", "componentType": 5126, "count": 1687, "max": [-0.052958894520998, 0.15358766913414001, 0.15312567353248596], "min": [-0.0976490005850792, -0.15266400575637817, -0.15312600135803223], "bufferView": 39, "byteOffset": 0}, {"type": "VEC3", "componentType": 5126, "count": 1687, "bufferView": 39, "byteOffset": 12}, {"type": "VEC3", "componentType": 5126, "count": 25436, "max": [0.05423181876540184, 0.25225862860679626, 0.2529563903808594], "min": [-0.18791499733924866, -0.2511669993400574, -0.25169798731803894], "bufferView": 40, "byteOffset": 0}, {"type": "VEC3", "componentType": 5126, "count": 25436, "bufferView": 40, "byteOffset": 12}, {"type": "VEC3", "componentType": 5126, "count": 3473, "max": [-0.14161299169063568, 0.05129446089267731, 0.052428632974624634], "min": [-0.1650719940662384, -0.04896239936351776, -0.044661298394203186], "bufferView": 41, "byteOffset": 0}, {"type": "VEC3", "componentType": 5126, "count": 3473, "bufferView": 41, "byteOffset": 12}, {"type": "VEC3", "componentType": 5126, "count": 65531, "max": [0.8735119104385376, 2.2302112579345703, 0.7293176054954529], "min": [-0.8735120296478271, -2.2244300842285156, 0.13378000259399414], "bufferView": 42, "byteOffset": 0}, {"type": "VEC3", "componentType": 5126, "count": 65531, "bufferView": 42, "byteOffset": 12}, {"type": "VEC3", "componentType": 5126, "count": 25585, "max": [0.8409997224807739, -0.8496934771537781, 0.7067813277244568], "min": [-0.8409998416900635, -2.2244300842285156, 0.33074846863746643], "bufferView": 43, "byteOffset": 0}, {"type": "VEC3", "componentType": 5126, "count": 25585, "bufferView": 43, "byteOffset": 12}, {"type": "VEC3", "componentType": 5126, "count": 65531, "max": [0.8863401412963867, 2.201293468475342, 1.3325295448303223], "min": [-0.9330689907073975, -2.2327959537506104, 0.1988299936056137], "bufferView": 44, "byteOffset": 0}, {"type": "VEC3", "componentType": 5126, "count": 65531, "bufferView": 44, "byteOffset": 12}, {"type": "VEC3", "componentType": 5126, "count": 44095, "max": [0.9330676794052124, 2.2269229888916016, 1.3355365991592407], "min": [-0.8864197731018066, -2.232830047607422, 0.1988299936056137], "bufferView": 45, "byteOffset": 0}, {"type": "VEC3", "componentType": 5126, "count": 44095, "bufferView": 45, "byteOffset": 12}, {"type": "VEC3", "componentType": 5126, "count": 2769, "max": [0.7622337937355042, 1.760711431503296, 1.2949821949005127], "min": [-0.7622489929199219, -0.925171971321106, 0.26680898666381836], "bufferView": 46, "byteOffset": 0}, {"type": "VEC3", "componentType": 5126, "count": 2769, "bufferView": 46, "byteOffset": 12}, {"type": "VEC3", "componentType": 5126, "count": 12, "max": [0.11579939723014832, -0.2593490481376648, 1.184204339981079], "min": [-0.11432526260614395, -0.28986498713493347, 1.1267821788787842], "bufferView": 47, "byteOffset": 0}, {"type": "VEC3", "componentType": 5126, "count": 12, "bufferView": 47, "byteOffset": 12}], "bufferViews": [{"buffer": 0, "byteOffset": 0, "byteLength": 125592, "byteStride": 24, "target": 34962}, {"buffer": 0, "byteOffset": 125592, "byteLength": 3554292, "target": 34963}, {"buffer": 0, "byteOffset": 3679884, "byteLength": 76920, "byteStride": 24, "target": 34962}, {"buffer": 0, "byteOffset": 3756804, "byteLength": 347928, "byteStride": 24, "target": 34962}, {"buffer": 0, "byteOffset": 4104732, "byteLength": 432, "byteStride": 24, "target": 34962}, {"buffer": 0, "byteOffset": 4105164, "byteLength": 81792, "byteStride": 24, "target": 34962}, {"buffer": 0, "byteOffset": 4186956, "byteLength": 356976, "byteStride": 24, "target": 34962}, {"buffer": 0, "byteOffset": 4543932, "byteLength": 467640, "byteStride": 24, "target": 34962}, {"buffer": 0, "byteOffset": 5011572, "byteLength": 139344, "byteStride": 24, "target": 34962}, {"buffer": 0, "byteOffset": 5150916, "byteLength": 68976, "byteStride": 24, "target": 34962}, {"buffer": 0, "byteOffset": 5219892, "byteLength": 1087416, "byteStride": 24, "target": 34962}, {"buffer": 0, "byteOffset": 6307308, "byteLength": 887352, "byteStride": 24, "target": 34962}, {"buffer": 0, "byteOffset": 7194660, "byteLength": 70368, "byteStride": 24, "target": 34962}, {"buffer": 0, "byteOffset": 7265028, "byteLength": 741264, "byteStride": 24, "target": 34962}, {"buffer": 0, "byteOffset": 8006292, "byteLength": 48768, "byteStride": 24, "target": 34962}, {"buffer": 0, "byteOffset": 8055060, "byteLength": 71208, "byteStride": 24, "target": 34962}, {"buffer": 0, "byteOffset": 8126268, "byteLength": 623040, "byteStride": 24, "target": 34962}, {"buffer": 0, "byteOffset": 8749308, "byteLength": 34992, "byteStride": 24, "target": 34962}, {"buffer": 0, "byteOffset": 8784300, "byteLength": 1314792, "byteStride": 24, "target": 34962}, {"buffer": 0, "byteOffset": 10099092, "byteLength": 610464, "byteStride": 24, "target": 34962}, {"buffer": 0, "byteOffset": 10709556, "byteLength": 83352, "byteStride": 24, "target": 34962}, {"buffer": 0, "byteOffset": 10792908, "byteLength": 40488, "byteStride": 24, "target": 34962}, {"buffer": 0, "byteOffset": 10833396, "byteLength": 106464, "byteStride": 24, "target": 34962}, {"buffer": 0, "byteOffset": 10939860, "byteLength": 32904, "byteStride": 24, "target": 34962}, {"buffer": 0, "byteOffset": 10972764, "byteLength": 1314792, "byteStride": 24, "target": 34962}, {"buffer": 0, "byteOffset": 12287556, "byteLength": 610464, "byteStride": 24, "target": 34962}, {"buffer": 0, "byteOffset": 12898020, "byteLength": 83352, "byteStride": 24, "target": 34962}, {"buffer": 0, "byteOffset": 12981372, "byteLength": 40488, "byteStride": 24, "target": 34962}, {"buffer": 0, "byteOffset": 13021860, "byteLength": 106464, "byteStride": 24, "target": 34962}, {"buffer": 0, "byteOffset": 13128324, "byteLength": 32976, "byteStride": 24, "target": 34962}, {"buffer": 0, "byteOffset": 13161300, "byteLength": 106464, "byteStride": 24, "target": 34962}, {"buffer": 0, "byteOffset": 13267764, "byteLength": 32904, "byteStride": 24, "target": 34962}, {"buffer": 0, "byteOffset": 13300668, "byteLength": 1363992, "byteStride": 24, "target": 34962}, {"buffer": 0, "byteOffset": 14664660, "byteLength": 40488, "byteStride": 24, "target": 34962}, {"buffer": 0, "byteOffset": 14705148, "byteLength": 610464, "byteStride": 24, "target": 34962}, {"buffer": 0, "byteOffset": 15315612, "byteLength": 101952, "byteStride": 24, "target": 34962}, {"buffer": 0, "byteOffset": 15417564, "byteLength": 106464, "byteStride": 24, "target": 34962}, {"buffer": 0, "byteOffset": 15524028, "byteLength": 33000, "byteStride": 24, "target": 34962}, {"buffer": 0, "byteOffset": 15557028, "byteLength": 1314792, "byteStride": 24, "target": 34962}, {"buffer": 0, "byteOffset": 16871820, "byteLength": 40488, "byteStride": 24, "target": 34962}, {"buffer": 0, "byteOffset": 16912308, "byteLength": 610464, "byteStride": 24, "target": 34962}, {"buffer": 0, "byteOffset": 17522772, "byteLength": 83352, "byteStride": 24, "target": 34962}, {"buffer": 0, "byteOffset": 17606124, "byteLength": 1572744, "byteStride": 24, "target": 34962}, {"buffer": 0, "byteOffset": 19178868, "byteLength": 614040, "byteStride": 24, "target": 34962}, {"buffer": 0, "byteOffset": 19792908, "byteLength": 1572744, "byteStride": 24, "target": 34962}, {"buffer": 0, "byteOffset": 21365652, "byteLength": 1058280, "byteStride": 24, "target": 34962}, {"buffer": 0, "byteOffset": 22423932, "byteLength": 66456, "byteStride": 24, "target": 34962}, {"buffer": 0, "byteOffset": 22490388, "byteLength": 288, "byteStride": 24, "target": 34962}], "buffers": [{"uri": "Mazda_RX8.bin", "byteLength": 22490676}], "materials": [{"name": "metal", "extras": {"SKETCHFAB_reflection": 0.1}, "doubleSided": true, "pbrMetallicRoughness": {"baseColorFactor": [0.02, 0.02, 0.02, 1.0], "roughnessFactor": 0.3, "metallicFactor": 0.8}, "extensions": {"KHR_materials_specular": {"specularColorFactor": [0.396, 0.396, 0.396]}}}, {"name": "Car chrome", "extras": {"SKETCHFAB_reflection": 0.1}, "doubleSided": true, "pbrMetallicRoughness": {"baseColorFactor": [0.02, 0.02, 0.02, 1.0], "roughnessFactor": 0.3, "metallicFactor": 0.8}, "extensions": {"KHR_materials_specular": {"specularColorFactor": [0.087639, 0.087639, 0.087639]}}}, {"name": "Car chrome", "extras": {"SKETCHFAB_reflection": 0.1}, "doubleSided": true, "pbrMetallicRoughness": {"baseColorFactor": [0.02, 0.02, 0.02, 1.0], "roughnessFactor": 0.3, "metallicFactor": 0.8}, "extensions": {"KHR_materials_specular": {"specularColorFactor": [0.087639, 0.087639, 0.087639]}}}, {"name": "licence_plate", "extras": {"SKETCHFAB_reflection": 0.1}, "doubleSided": true, "pbrMetallicRoughness": {"baseColorFactor": [0.02, 0.02, 0.02, 1.0], "roughnessFactor": 0.3, "metallicFactor": 0.8}, "extensions": {"KHR_materials_specular": {"specularColorFactor": [0.225, 0.225, 0.225]}}}, {"name": "Plastic", "extras": {"SKETCHFAB_reflection": 0.1}, "doubleSided": true, "pbrMetallicRoughness": {"baseColorFactor": [0.02, 0.02, 0.02, 1.0], "roughnessFactor": 0.3, "metallicFactor": 0.8}, "extensions": {"KHR_materials_specular": {"specularColorFactor": [0, 0, 0]}}}, {"name": "glass_white", "extras": {"SKETCHFAB_reflection": 0.1}, "alphaMode": "BLEND", "doubleSided": true, "pbrMetallicRoughness": {"baseColorFactor": [0.02, 0.02, 0.02, 1.0], "roughnessFactor": 0.3, "metallicFactor": 0.8}, "extensions": {"KHR_materials_specular": {"specularColorFactor": [0.882, 0.882, 0.882]}}}, {"name": "glass_red", "extras": {"SKETCHFAB_reflection": 0.1}, "alphaMode": "BLEND", "doubleSided": true, "pbrMetallicRoughness": {"baseColorFactor": [0.02, 0.02, 0.02, 1.0], "roughnessFactor": 0.3, "metallicFactor": 0.8}, "extensions": {"KHR_materials_specular": {"specularColorFactor": [0.882, 0.882, 0.882]}}}, {"name": "glass_yellow", "extras": {"SKETCHFAB_reflection": 0.1}, "alphaMode": "BLEND", "doubleSided": true, "pbrMetallicRoughness": {"baseColorFactor": [0.02, 0.02, 0.02, 1.0], "roughnessFactor": 0.3, "metallicFactor": 0.8}, "extensions": {"KHR_materials_specular": {"specularColorFactor": [0.882, 0.882, 0.882]}}}, {"name": "metal", "extras": {"SKETCHFAB_reflection": 0.1}, "doubleSided": true, "pbrMetallicRoughness": {"baseColorFactor": [0.02, 0.02, 0.02, 1.0], "roughnessFactor": 0.3, "metallicFactor": 0.8}, "extensions": {"KHR_materials_specular": {"specularColorFactor": [0.396, 0.396, 0.396]}}}, {"name": "window_glass", "extras": {"SKETCHFAB_reflection": 0.1}, "alphaMode": "BLEND", "doubleSided": true, "pbrMetallicRoughness": {"baseColorFactor": [0.02, 0.02, 0.02, 1.0], "roughnessFactor": 0.3, "metallicFactor": 0.8}, "extensions": {"KHR_materials_specular": {"specularColorFactor": [0.2, 0.2, 0.2]}, "KHR_materials_transmission": {"transmissionFactor": 0.8441602599217968}}}, {"name": "plastic_matt", "extras": {"SKETCHFAB_reflection": 0.1}, "doubleSided": true, "pbrMetallicRoughness": {"baseColorFactor": [0.02, 0.02, 0.02, 1.0], "roughnessFactor": 0.3, "metallicFactor": 0.8}, "extensions": {"KHR_materials_specular": {"specularColorFactor": [0, 0, 0]}}}, {"name": "Rubber", "extras": {"SKETCHFAB_reflection": 0.1}, "doubleSided": true, "pbrMetallicRoughness": {"baseColorFactor": [0.02, 0.02, 0.02, 1.0], "roughnessFactor": 0.3, "metallicFactor": 0.8}, "extensions": {"KHR_materials_specular": {"specularColorFactor": [0.2, 0.2, 0.2]}}}, {"name": "Metal_dark", "extras": {"SKETCHFAB_reflection": 0.1}, "doubleSided": true, "pbrMetallicRoughness": {"baseColorFactor": [0.02, 0.02, 0.02, 1.0], "metallicFactor": 0.8, "roughnessFactor": 0.3}, "extensions": {"KHR_materials_specular": {"specularColorFactor": [0.0077659, 0.0077659, 0.0077659]}}}, {"name": "mirrow", "extras": {"SKETCHFAB_reflection": 0.1}, "doubleSided": true, "pbrMetallicRoughness": {"baseColorFactor": [0.02, 0.02, 0.02, 1.0], "roughnessFactor": 0.3, "metallicFactor": 0.8}, "extensions": {"KHR_materials_specular": {"specularColorFactor": [0.4, 0.4, 0.4]}}}, {"name": "Rubber", "extras": {"SKETCHFAB_reflection": 0.1}, "doubleSided": true, "pbrMetallicRoughness": {"baseColorFactor": [0.02, 0.02, 0.02, 1.0], "roughnessFactor": 0.3, "metallicFactor": 0.8}, "extensions": {"KHR_materials_specular": {"specularColorFactor": [0.2, 0.2, 0.2]}}}, {"name": "wheel_rim", "extras": {"SKETCHFAB_reflection": 0.1}, "doubleSided": true, "pbrMetallicRoughness": {"baseColorFactor": [0.02, 0.02, 0.02, 1.0], "roughnessFactor": 0.3, "metallicFactor": 0.8}, "extensions": {"KHR_materials_specular": {"specularColorFactor": [0.2, 0.2, 0.2]}}}, {"name": "Metal_dark", "extras": {"SKETCHFAB_reflection": 0.1}, "doubleSided": true, "pbrMetallicRoughness": {"baseColorFactor": [0.02, 0.02, 0.02, 1.0], "metallicFactor": 0.8, "roughnessFactor": 0.3}, "extensions": {"KHR_materials_specular": {"specularColorFactor": [0.0077659, 0.0077659, 0.0077659]}}}, {"name": "wheel_rim", "extras": {"SKETCHFAB_reflection": 0.1}, "doubleSided": true, "pbrMetallicRoughness": {"baseColorFactor": [0.02, 0.02, 0.02, 1.0], "roughnessFactor": 0.3, "metallicFactor": 0.8}, "extensions": {"KHR_materials_specular": {"specularColorFactor": [0.2, 0.2, 0.2]}}}, {"name": "Body_paint", "extras": {"SKETCHFAB_reflection": 0.1}, "doubleSided": true, "pbrMetallicRoughness": {"baseColorFactor": [0.02, 0.02, 0.02, 1.0], "roughnessFactor": 0.3, "metallicFactor": 0.8}, "extensions": {"KHR_materials_specular": {"specularColorFactor": [0.19157275, 0.19365975, 0.2]}}}, {"name": "plastic_matt", "extras": {"SKETCHFAB_reflection": 0.1}, "doubleSided": true, "pbrMetallicRoughness": {"baseColorFactor": [0.02, 0.02, 0.02, 1.0], "roughnessFactor": 0.3, "metallicFactor": 0.8}, "extensions": {"KHR_materials_specular": {"specularColorFactor": [0, 0, 0]}}}, {"name": "mirrow", "extras": {"SKETCHFAB_reflection": 0.1}, "doubleSided": true, "pbrMetallicRoughness": {"baseColorFactor": [0.02, 0.02, 0.02, 1.0], "roughnessFactor": 0.3, "metallicFactor": 0.8}, "extensions": {"KHR_materials_specular": {"specularColorFactor": [0.4, 0.4, 0.4]}}}], "meshes": [{"name": "Chrome_and_Metal_metal_0", "primitives": [{"attributes": {"POSITION": 0, "NORMAL": 1}, "mode": 5, "material": 0, "indices": 2}]}, {"name": "Chrome_and_Metal_Car chrome_0", "primitives": [{"attributes": {"POSITION": 49, "NORMAL": 50}, "mode": 5, "material": 1, "indices": 3}]}, {"name": "Chrome_Signs_Car chrome_0", "primitives": [{"attributes": {"POSITION": 51, "NORMAL": 52}, "mode": 5, "material": 2, "indices": 4}]}, {"name": "LicencePlate_licence_plate_0", "primitives": [{"attributes": {"POSITION": 53, "NORMAL": 54}, "mode": 5, "material": 3, "indices": 5}]}, {"name": "LicencePlate_Plastic_Plastic_0", "primitives": [{"attributes": {"POSITION": 55, "NORMAL": 56}, "mode": 5, "material": 4, "indices": 6}]}, {"name": "Lamp_Chrome_Car chrome_0", "primitives": [{"attributes": {"POSITION": 57, "NORMAL": 58}, "mode": 5, "material": 2, "indices": 7}]}, {"name": "Lamp_Glass_Clear_glass_white_0", "primitives": [{"attributes": {"POSITION": 59, "NORMAL": 60}, "mode": 5, "material": 5, "indices": 8}]}, {"name": "Lamp_Glass_Red_glass_red_0", "primitives": [{"attributes": {"POSITION": 61, "NORMAL": 62}, "mode": 5, "material": 6, "indices": 9}]}, {"name": "Lamp_Glass_Yellow_glass_yellow_0", "primitives": [{"attributes": {"POSITION": 63, "NORMAL": 64}, "mode": 5, "material": 7, "indices": 10}]}, {"name": "Lamp_Plastic_Plastic_0", "primitives": [{"attributes": {"POSITION": 65, "NORMAL": 66}, "mode": 5, "material": 4, "indices": 11}]}, {"name": "Lamp_Plastic_Grey_metal_0", "primitives": [{"attributes": {"POSITION": 67, "NORMAL": 68}, "mode": 5, "material": 8, "indices": 12}]}, {"name": "Windows_Glass_window_glass_0", "primitives": [{"attributes": {"POSITION": 69, "NORMAL": 70}, "mode": 5, "material": 9, "indices": 13}]}, {"name": "Windows_Plastic_Plastic_0", "primitives": [{"attributes": {"POSITION": 71, "NORMAL": 72}, "mode": 5, "material": 4, "indices": 14}]}, {"name": "Windows_PlasticLayer_plastic_matt_0", "primitives": [{"attributes": {"POSITION": 73, "NORMAL": 74}, "mode": 5, "material": 10, "indices": 15}]}, {"name": "Windscreen_Wipers_Rubber_0", "primitives": [{"attributes": {"POSITION": 75, "NORMAL": 76}, "mode": 5, "material": 11, "indices": 16}]}, {"name": "Windscreen_Wipers_Metal_dark_0", "primitives": [{"attributes": {"POSITION": 77, "NORMAL": 78}, "mode": 5, "material": 12, "indices": 17}]}, {"name": "Mirrows_mirrow_0", "primitives": [{"attributes": {"POSITION": 79, "NORMAL": 80}, "mode": 5, "material": 13, "indices": 18}]}, {"name": "Wheel_Back_L_Rubber_0", "primitives": [{"attributes": {"POSITION": 81, "NORMAL": 82}, "mode": 5, "material": 14, "indices": 19}]}, {"name": "Wheel_Back_L_wheel_rim_0", "primitives": [{"attributes": {"POSITION": 83, "NORMAL": 84}, "mode": 5, "material": 15, "indices": 20}]}, {"name": "Wheel_Back_L_Car chrome_0", "primitives": [{"attributes": {"POSITION": 85, "NORMAL": 86}, "mode": 5, "material": 2, "indices": 21}]}, {"name": "Wheel_Back_L_metal_0", "primitives": [{"attributes": {"POSITION": 87, "NORMAL": 88}, "mode": 5, "material": 8, "indices": 22}]}, {"name": "Wheel_Break_Back_L_Metal_dark_0", "primitives": [{"attributes": {"POSITION": 89, "NORMAL": 90}, "mode": 5, "material": 16, "indices": 23}]}, {"name": "Wheel_Break_Back_L_metal_0", "primitives": [{"attributes": {"POSITION": 91, "NORMAL": 92}, "mode": 5, "material": 8, "indices": 24}]}, {"name": "Wheel_Back_R_Rubber_0", "primitives": [{"attributes": {"POSITION": 93, "NORMAL": 94}, "mode": 5, "material": 14, "indices": 25}]}, {"name": "Wheel_Back_R_wheel_rim_0", "primitives": [{"attributes": {"POSITION": 95, "NORMAL": 96}, "mode": 5, "material": 15, "indices": 26}]}, {"name": "Wheel_Back_R_Car chrome_0", "primitives": [{"attributes": {"POSITION": 97, "NORMAL": 98}, "mode": 5, "material": 2, "indices": 27}]}, {"name": "Wheel_Back_R_metal_0", "primitives": [{"attributes": {"POSITION": 99, "NORMAL": 100}, "mode": 5, "material": 8, "indices": 28}]}, {"name": "Wheel_Break_Back_R_Metal_dark_0", "primitives": [{"attributes": {"POSITION": 101, "NORMAL": 102}, "mode": 5, "material": 16, "indices": 29}]}, {"name": "Wheel_Break_Back_R_metal_0", "primitives": [{"attributes": {"POSITION": 103, "NORMAL": 104}, "mode": 5, "material": 8, "indices": 30}]}, {"name": "Wheel_Break_Front_L_Metal_dark_0", "primitives": [{"attributes": {"POSITION": 105, "NORMAL": 106}, "mode": 5, "material": 16, "indices": 31}]}, {"name": "Wheel_Break_Front_L_metal_0", "primitives": [{"attributes": {"POSITION": 107, "NORMAL": 108}, "mode": 5, "material": 8, "indices": 32}]}, {"name": "Wheel_Front_L_Rubber_0", "primitives": [{"attributes": {"POSITION": 109, "NORMAL": 110}, "mode": 5, "material": 11, "indices": 33}]}, {"name": "Wheel_Front_L_metal_0", "primitives": [{"attributes": {"POSITION": 111, "NORMAL": 112}, "mode": 5, "material": 0, "indices": 34}]}, {"name": "Wheel_Front_L_wheel_rim_0", "primitives": [{"attributes": {"POSITION": 113, "NORMAL": 114}, "mode": 5, "material": 17, "indices": 35}]}, {"name": "Wheel_Front_L_Car chrome_0", "primitives": [{"attributes": {"POSITION": 115, "NORMAL": 116}, "mode": 5, "material": 1, "indices": 36}]}, {"name": "Wheel_Break_Front_R_Metal_dark_0", "primitives": [{"attributes": {"POSITION": 117, "NORMAL": 118}, "mode": 5, "material": 16, "indices": 37}]}, {"name": "Wheel_Break_Front_R_metal_0", "primitives": [{"attributes": {"POSITION": 119, "NORMAL": 120}, "mode": 5, "material": 8, "indices": 38}]}, {"name": "Wheel_Front_R_Rubber_0", "primitives": [{"attributes": {"POSITION": 121, "NORMAL": 122}, "mode": 5, "material": 14, "indices": 39}]}, {"name": "Wheel_Front_R_metal_0", "primitives": [{"attributes": {"POSITION": 123, "NORMAL": 124}, "mode": 5, "material": 8, "indices": 40}]}, {"name": "Wheel_Front_R_wheel_rim_0", "primitives": [{"attributes": {"POSITION": 125, "NORMAL": 126}, "mode": 5, "material": 15, "indices": 41}]}, {"name": "Wheel_Front_R_Car chrome_0", "primitives": [{"attributes": {"POSITION": 127, "NORMAL": 128}, "mode": 5, "material": 2, "indices": 42}]}, {"name": "Plastic_Plastic_0", "primitives": [{"attributes": {"POSITION": 129, "NORMAL": 130}, "mode": 5, "material": 4, "indices": 43}]}, {"name": "Plastic_Plastic_0", "primitives": [{"attributes": {"POSITION": 131, "NORMAL": 132}, "mode": 5, "material": 4, "indices": 44}]}, {"name": "Body_Body_paint_0", "primitives": [{"attributes": {"POSITION": 133, "NORMAL": 134}, "mode": 5, "material": 18, "indices": 45}]}, {"name": "Body_Body_paint_0", "primitives": [{"attributes": {"POSITION": 135, "NORMAL": 136}, "mode": 5, "material": 18, "indices": 46}]}, {"name": "Interior_plastic_matt_0", "primitives": [{"attributes": {"POSITION": 137, "NORMAL": 138}, "mode": 5, "material": 19, "indices": 47}]}, {"name": "Interior_mirrow_0", "primitives": [{"attributes": {"POSITION": 139, "NORMAL": 140}, "mode": 5, "material": 20, "indices": 48}]}], "nodes": [{"name": "bf257e95a4f643628efe6bcd6b7d23e7.fbx", "rotation": [0.7071067811865475, 0, 0, 0.7071067811865476], "children": [1]}, {"name": "RootNode", "children": [2, 6, 9, 12, 15, 18, 21, 24, 27, 30, 33, 36, 39, 42, 46, 49, 60, 71, 82, 93, 97, 101]}, {"name": "Chrome_and_Metal", "rotation": [-0.7071068387878191, 0, 0, 0.7071067235852713], "scale": [100, 100.00000000000132, 100.00000000000132], "children": [3]}, {"name": "Chrome_and_Metal", "children": [4, 5]}, {"name": "Chrome_and_Metal_metal_0", "extras": {"userData": {"attributes": 55, "vertex_bits": 16, "vertex_mode": 3, "uv_0_bits": 14, "uv_0_mode": 3, "uv_1_bits": 16, "uv_1_mode": 3, "epsilon": 0.25, "nphi": 720, "triangle_mode": 7, "vtx_bbl_x": -0.667088, "vtx_bbl_y": -1.91264, "vtx_bbl_z": 0.19383, "vtx_h_x": 4.71277e-05, "vtx_h_y": 0.000121603, "vtx_h_z": 1.87458e-05, "uv_0_bbl_x": 0, "uv_0_bbl_y": 0, "uv_0_h_x": 0.000131852, "uv_0_h_y": 0.000122085, "uv_1_bbl_x": -1.42856, "uv_1_bbl_y": -1.42856, "uv_1_h_x": 0.000117713, "uv_1_h_y": 0.000117713}}, "mesh": 0}, {"name": "Chrome_and_Metal_Car chrome_0", "extras": {"userData": {"attributes": 55, "vertex_bits": 16, "vertex_mode": 3, "uv_0_bits": 14, "uv_0_mode": 3, "uv_1_bits": 8, "uv_1_mode": 3, "epsilon": 0.25, "nphi": 720, "triangle_mode": 7, "vtx_bbl_x": -0.672375, "vtx_bbl_y": 1.90519, "vtx_bbl_z": 0.318148, "vtx_h_x": 4.10399e-05, "vtx_h_y": 5.21705e-06, "vtx_h_z": 1.50468e-05, "uv_0_bbl_x": 0, "uv_0_bbl_y": 0, "uv_0_h_x": 0.000122085, "uv_0_h_y": 0.000122085, "uv_1_bbl_x": 0, "uv_1_bbl_y": 0, "uv_1_h_x": 7.87402e-08, "uv_1_h_y": 7.87402e-08}}, "mesh": 1}, {"name": "Chrome_Signs", "rotation": [-0.7071068387878191, 0, 0, 0.7071067235852713], "scale": [100, 100.00000000000132, 100.00000000000132], "children": [7]}, {"name": "Chrome_Signs", "children": [8]}, {"name": "Chrome_Signs_Car chrome_0", "extras": {"userData": {"attributes": 55, "vertex_bits": 20, "vertex_mode": 3, "uv_0_bits": 14, "uv_0_mode": 3, "epsilon": 0.25, "nphi": 720, "triangle_mode": 7, "vtx_bbl_x": -0.366226, "vtx_bbl_y": -2.17455, "vtx_bbl_z": 0.616417, "vtx_h_x": 1.39014e-06, "vtx_h_y": 8.19309e-06, "vtx_h_z": 5.57885e-07, "uv_0_bbl_x": 0, "uv_0_bbl_y": 0, "uv_0_h_x": 0.000122085, "uv_0_h_y": 0.000122085}}, "mesh": 2}, {"name": "LicencePlate", "rotation": [-0.7071068387878191, 0, 0, 0.7071067235852713], "scale": [100, 100.00000000000132, 100.00000000000132], "children": [10]}, {"name": "LicencePlate", "children": [11]}, {"name": "LicencePlate_licence_plate_0", "extras": {"userData": {"attributes": 55, "vertex_bits": 8, "vertex_mode": 3, "uv_0_bits": 14, "uv_0_mode": 3, "epsilon": 0.25, "nphi": 720, "triangle_mode": 7, "vtx_bbl_x": -0.263813, "vtx_bbl_y": 2.18785, "vtx_bbl_z": 0.533046, "vtx_h_x": 0.00415454, "vtx_h_y": 0.00017235, "vtx_h_z": 0.000902205, "uv_0_bbl_x": 0, "uv_0_bbl_y": 0, "uv_0_h_x": 0.000122085, "uv_0_h_y": 0.000122085}}, "mesh": 3}, {"name": "LicencePlate_Plastic", "rotation": [-0.7071068387878191, 0, 0, 0.7071067235852713], "scale": [100, 100.00000000000132, 100.00000000000132], "children": [13]}, {"name": "LicencePlate_Plastic", "children": [14]}, {"name": "LicencePlate_Plastic_Plastic_0", "extras": {"userData": {"attributes": 55, "vertex_bits": 16, "vertex_mode": 3, "uv_0_bits": 14, "uv_0_mode": 3, "uv_1_bits": 16, "uv_1_mode": 3, "epsilon": 0.25, "nphi": 720, "triangle_mode": 7, "vtx_bbl_x": -0.27, "vtx_bbl_y": 2.17877, "vtx_bbl_z": 0.51594, "vtx_h_x": 1.648e-05, "vtx_h_y": 9.80647e-07, "vtx_h_z": 4.28364e-06, "uv_0_bbl_x": 0, "uv_0_bbl_y": 0, "uv_0_h_x": 0.000122085, "uv_0_h_y": 0.000122085, "uv_1_bbl_x": 0.230139, "uv_1_bbl_y": 0.319241, "uv_1_h_x": 7.54513e-05, "uv_1_h_y": 7.28942e-05}}, "mesh": 4}, {"name": "Lamp_Chrome", "rotation": [-0.7071068387878191, 0, 0, 0.7071067235852713], "scale": [100, 100.00000000000132, 100.00000000000132], "children": [16]}, {"name": "Lamp_Chrome", "children": [17]}, {"name": "Lamp_Chrome_Car chrome_0", "extras": {"userData": {"attributes": 55, "vertex_bits": 20, "vertex_mode": 3, "uv_0_bits": 14, "uv_0_mode": 3, "epsilon": 0.25, "nphi": 720, "triangle_mode": 7, "vtx_bbl_x": -0.87641, "vtx_bbl_y": -2.08426, "vtx_bbl_z": 0.303453, "vtx_h_x": 3.34324e-06, "vtx_h_y": 8.19267e-06, "vtx_h_z": 1.29872e-06, "uv_0_bbl_x": 0, "uv_0_bbl_y": 0, "uv_0_h_x": 0.000122085, "uv_0_h_y": 0.000122085}}, "mesh": 5}, {"name": "Lamp_Glass_Clear", "rotation": [-0.7071068387878191, 0, 0, 0.7071067235852713], "scale": [100, 100.00000000000132, 100.00000000000132], "children": [19]}, {"name": "Lamp_Glass_Clear", "children": [20]}, {"name": "Lamp_Glass_Clear_glass_white_0", "extras": {"userData": {"attributes": 55, "vertex_bits": 20, "vertex_mode": 3, "uv_0_bits": 14, "uv_0_mode": 3, "epsilon": 0.25, "nphi": 720, "triangle_mode": 7, "vtx_bbl_x": -0.79585, "vtx_bbl_y": -2.10082, "vtx_bbl_z": 0.343735, "vtx_h_x": 3.03593e-06, "vtx_h_y": 8.2262e-06, "vtx_h_z": 1.12269e-06, "uv_0_bbl_x": 0, "uv_0_bbl_y": -0.0008, "uv_0_h_x": 0.000122085, "uv_0_h_y": 0.000122183}}, "mesh": 6}, {"name": "Lamp_Glass_Red", "rotation": [-0.7071068387878191, 0, 0, 0.7071067235852713], "scale": [100, 100.00000000000132, 100.00000000000132], "children": [22]}, {"name": "Lamp_Glass_Red", "children": [23]}, {"name": "Lamp_Glass_Red_glass_red_0", "extras": {"userData": {"attributes": 55, "vertex_bits": 16, "vertex_mode": 3, "uv_0_bits": 14, "uv_0_mode": 3, "uv_1_bits": 14, "uv_1_mode": 3, "epsilon": 0.25, "nphi": 720, "triangle_mode": 7, "vtx_bbl_x": -0.697204, "vtx_bbl_y": 1.84628, "vtx_bbl_z": 0.304272, "vtx_h_x": 4.26095e-05, "vtx_h_y": 9.93073e-06, "vtx_h_z": 2.07609e-05, "uv_0_bbl_x": 0, "uv_0_bbl_y": 0, "uv_0_h_x": 0.000122085, "uv_0_h_y": 0.000122085, "uv_1_bbl_x": -0.198093, "uv_1_bbl_y": 0.160176, "uv_1_h_x": 0.000170454, "uv_1_h_y": 8.29539e-05}}, "mesh": 7}, {"name": "Lamp_Glass_Yellow", "rotation": [-0.7071068387878191, 0, 0, 0.7071067235852713], "scale": [100, 100.00000000000132, 100.00000000000132], "children": [25]}, {"name": "Lamp_Glass_Yellow", "children": [26]}, {"name": "Lamp_Glass_Yellow_glass_yellow_0", "extras": {"userData": {"attributes": 55, "vertex_bits": 20, "vertex_mode": 3, "uv_0_bits": 14, "uv_0_mode": 3, "epsilon": 0.25, "nphi": 720, "triangle_mode": 7, "vtx_bbl_x": -0.885463, "vtx_bbl_y": -1.80177, "vtx_bbl_z": 0.599408, "vtx_h_x": 3.37778e-06, "vtx_h_y": 7.10397e-06, "vtx_h_z": 4.89557e-07, "uv_0_bbl_x": 0, "uv_0_bbl_y": 0, "uv_0_h_x": 0.000122085, "uv_0_h_y": 0.000122085}}, "mesh": 8}, {"name": "Lamp_Plastic", "rotation": [-0.7071068387878191, 0, 0, 0.7071067235852713], "scale": [100, 100.00000000000132, 100.00000000000132], "children": [28]}, {"name": "Lamp_Plastic", "children": [29]}, {"name": "Lamp_Plastic_Plastic_0", "extras": {"userData": {"attributes": 55, "vertex_bits": 20, "vertex_mode": 3, "uv_0_bits": 14, "uv_0_mode": 3, "uv_1_bits": 16, "uv_1_mode": 3, "epsilon": 0.25, "nphi": 720, "triangle_mode": 7, "vtx_bbl_x": -0.796657, "vtx_bbl_y": -2.10885, "vtx_bbl_z": 0.324818, "vtx_h_x": 3.03901e-06, "vtx_h_y": 8.24308e-06, "vtx_h_z": 1.16567e-06, "uv_0_bbl_x": -0.2597, "uv_0_bbl_y": 0, "uv_0_h_x": 0.000153791, "uv_0_h_y": 0.000122085, "uv_1_bbl_x": -1.61174, "uv_1_bbl_y": -1.61174, "uv_1_h_x": 0.000131736, "uv_1_h_y": 0.00013189}}, "mesh": 9}, {"name": "Lamp_Plastic_Grey", "rotation": [-0.7071068387878191, 0, 0, 0.7071067235852713], "scale": [100, 100.00000000000132, 100.00000000000132], "children": [31]}, {"name": "Lamp_Plastic_Grey", "children": [32]}, {"name": "Lamp_Plastic_Grey_metal_0", "extras": {"userData": {"attributes": 55, "vertex_bits": 20, "vertex_mode": 3, "uv_0_bits": 14, "uv_0_mode": 3, "epsilon": 0.25, "nphi": 720, "triangle_mode": 7, "vtx_bbl_x": -0.799763, "vtx_bbl_y": -1.97525, "vtx_bbl_z": 0.59773, "vtx_h_x": 3.05086e-06, "vtx_h_y": 7.70539e-06, "vtx_h_z": 6.0175e-07, "uv_0_bbl_x": 0, "uv_0_bbl_y": 0, "uv_0_h_x": 0.000122085, "uv_0_h_y": 0.000122085}}, "mesh": 10}, {"name": "Windows_Glass", "rotation": [-0.7071068387878191, 0, 0, 0.7071067235852713], "scale": [100, 100.00000000000132, 100.00000000000132], "children": [34]}, {"name": "Windows_Glass", "children": [35]}, {"name": "Windows_Glass_window_glass_0", "extras": {"userData": {"attributes": 55, "vertex_bits": 16, "vertex_mode": 3, "uv_0_bits": 14, "uv_0_mode": 3, "uv_1_bits": 16, "uv_1_mode": 3, "epsilon": 0.25, "nphi": 720, "triangle_mode": 7, "vtx_bbl_x": -0.73475, "vtx_bbl_y": -0.935997, "vtx_bbl_z": 0.868515, "vtx_h_x": 4.48469e-05, "vtx_h_y": 8.19043e-05, "vtx_h_z": 1.18652e-05, "uv_0_bbl_x": 0, "uv_0_bbl_y": 0, "uv_0_h_x": 0.000122085, "uv_0_h_y": 0.000122085, "uv_1_bbl_x": -0.664382, "uv_1_bbl_y": -0.841879, "uv_1_h_x": 7.22912e-05, "uv_1_h_y": 8.18843e-05}}, "mesh": 11}, {"name": "Windows_Plastic", "rotation": [-0.7071068387878191, 0, 0, 0.7071067235852713], "scale": [100, 100.00000000000132, 100.00000000000132], "children": [37]}, {"name": "Windows_Plastic", "children": [38]}, {"name": "Windows_Plastic_Plastic_0", "extras": {"userData": {"attributes": 55, "vertex_bits": 20, "vertex_mode": 3, "uv_0_bits": 14, "uv_0_mode": 3, "uv_1_bits": 16, "uv_1_mode": 3, "epsilon": 0.25, "nphi": 720, "triangle_mode": 7, "vtx_bbl_x": -0.932846, "vtx_bbl_y": -1.06861, "vtx_bbl_z": 0.854749, "vtx_h_x": 3.55853e-06, "vtx_h_y": 3.82517e-06, "vtx_h_z": 7.7281e-07, "uv_0_bbl_x": 0, "uv_0_bbl_y": 0, "uv_0_h_x": 0.000132255, "uv_0_h_y": 0.000122085, "uv_1_bbl_x": -0.539256, "uv_1_bbl_y": -0.571503, "uv_1_h_x": 6.02142e-05, "uv_1_h_y": 6.11455e-05}}, "mesh": 12}, {"name": "Windows_PlasticLayer", "rotation": [-0.7071068387878191, 0, 0, 0.7071067235852713], "scale": [100, 100.00000000000132, 100.00000000000132], "children": [40]}, {"name": "Windows_PlasticLayer", "children": [41]}, {"name": "Windows_PlasticLayer_plastic_matt_0", "extras": {"userData": {"attributes": 55, "vertex_bits": 16, "vertex_mode": 3, "uv_0_bits": 14, "uv_0_mode": 3, "epsilon": 0.25, "nphi": 720, "triangle_mode": 7, "vtx_bbl_x": -0.727409, "vtx_bbl_y": -0.932562, "vtx_bbl_z": 0.865047, "vtx_h_x": 4.44147e-05, "vtx_h_y": 8.17708e-05, "vtx_h_z": 1.18324e-05, "uv_0_bbl_x": 0, "uv_0_bbl_y": 0, "uv_0_h_x": 0.000122085, "uv_0_h_y": 0.000122085}}, "mesh": 13}, {"name": "Windscreen_Wipers", "rotation": [-0.7071068387878191, 0, 0, 0.7071067235852713], "scale": [100, 100.00000000000132, 100.00000000000132], "children": [43]}, {"name": "Windscreen_Wipers", "children": [44, 45]}, {"name": "Windscreen_Wipers_Rubber_0", "extras": {"userData": {"attributes": 55, "vertex_bits": 16, "vertex_mode": 3, "uv_0_bits": 14, "uv_0_mode": 3, "uv_1_bits": 16, "uv_1_mode": 3, "epsilon": 0.25, "nphi": 720, "triangle_mode": 7, "vtx_bbl_x": -0.648015, "vtx_bbl_y": -0.911299, "vtx_bbl_z": 0.889175, "vtx_h_x": 3.04244e-05, "vtx_h_y": 5.2002e-06, "vtx_h_z": 7.94275e-07, "uv_0_bbl_x": 0, "uv_0_bbl_y": 0, "uv_0_h_x": 0.000122085, "uv_0_h_y": 0.000122085, "uv_1_bbl_x": -0.41419, "uv_1_bbl_y": -0.413726, "uv_1_h_x": 3.85475e-05, "uv_1_h_y": 3.45444e-05}}, "mesh": 14}, {"name": "Windscreen_Wipers_Metal_dark_0", "extras": {"userData": {"attributes": 55, "vertex_bits": 16, "vertex_mode": 3, "uv_0_bits": 14, "uv_0_mode": 3, "uv_1_bits": 16, "uv_1_mode": 3, "epsilon": 0.25, "nphi": 720, "triangle_mode": 7, "vtx_bbl_x": -0.635242, "vtx_bbl_y": -0.992673, "vtx_bbl_z": 0.858511, "vtx_h_x": 3.76337e-05, "vtx_h_y": 7.47396e-06, "vtx_h_z": 2.21421e-06, "uv_0_bbl_x": 0, "uv_0_bbl_y": 0, "uv_0_h_x": 0.000132255, "uv_0_h_y": 0.000122085, "uv_1_bbl_x": -0.495523, "uv_1_bbl_y": -0.495564, "uv_1_h_x": 4.86289e-05, "uv_1_h_y": 3.75296e-05}}, "mesh": 15}, {"name": "Mirrows", "rotation": [-0.7071068387878191, 0, 0, 0.7071067235852713], "scale": [100, 100.00000000000132, 100.00000000000132], "children": [47]}, {"name": "Mirrows", "children": [48]}, {"name": "Mirrows_mirrow_0", "extras": {"userData": {"attributes": 55, "vertex_bits": 16, "vertex_mode": 3, "uv_0_bits": 14, "uv_0_mode": 3, "uv_1_bits": 16, "uv_1_mode": 3, "epsilon": 0.25, "nphi": 720, "triangle_mode": 7, "vtx_bbl_x": -0.927719, "vtx_bbl_y": -0.357906, "vtx_bbl_z": 0.915968, "vtx_h_x": 5.66252e-05, "vtx_h_y": 2.53032e-06, "vtx_h_z": 3.52e-06, "uv_0_bbl_x": 0, "uv_0_bbl_y": 0, "uv_0_h_x": 0.000122085, "uv_0_h_y": 0.000122085, "uv_1_bbl_x": -0.426449, "uv_1_bbl_y": 0.44233, "uv_1_h_x": 5.65477e-05, "uv_1_h_y": 3.51775e-06}}, "mesh": 16}, {"name": "Wheel_Back_Left", "translation": [70, 33.29999923706055, -131.2790069580078], "rotation": [-0.7071068387878191, 0, 0, 0.7071067235852713], "scale": [100, 100.00000000000132, 100.00000000000132], "children": [50, 56]}, {"name": "Wheel_Back_L", "children": [51]}, {"name": "Wheel_Back_L", "children": [52, 53, 54, 55]}, {"name": "Wheel_Back_L_Rubber_0", "extras": {"userData": {"attributes": 55, "vertex_bits": 16, "vertex_mode": 3, "uv_0_bits": 16, "uv_0_mode": 3, "epsilon": 0.25, "nphi": 720, "triangle_mode": 7, "vtx_bbl_x": -0.062096, "vtx_bbl_y": -0.334081, "vtx_bbl_z": -0.334623, "vtx_h_x": 7.67611e-06, "vtx_h_y": 2.04244e-05, "vtx_h_z": 2.04244e-05, "uv_0_bbl_x": -1.5768, "uv_0_bbl_y": -1.5769, "uv_0_h_x": 0.000126762, "uv_0_h_y": 0.000126768}}, "mesh": 17}, {"name": "Wheel_Back_L_wheel_rim_0", "extras": {"userData": {"attributes": 55, "vertex_bits": 16, "vertex_mode": 3, "uv_0_bits": 14, "uv_0_mode": 3, "epsilon": 0.25, "nphi": 720, "triangle_mode": 7, "vtx_bbl_x": -0.054232, "vtx_bbl_y": -0.252254, "vtx_bbl_z": -0.251698, "vtx_h_x": 7.39e-06, "vtx_h_y": 1.53638e-05, "vtx_h_z": 1.54013e-05, "uv_0_bbl_x": 0, "uv_0_bbl_y": 0, "uv_0_h_x": 0.000122085, "uv_0_h_y": 0.000122085}}, "mesh": 18}, {"name": "Wheel_Back_L_Car chrome_0", "extras": {"userData": {"attributes": 55, "vertex_bits": 16, "vertex_mode": 3, "uv_0_bits": 14, "uv_0_mode": 3, "epsilon": 0.25, "nphi": 720, "triangle_mode": 7, "vtx_bbl_x": 0.141612, "vtx_bbl_y": -0.0514691, "vtx_bbl_z": -0.0446598, "vtx_h_x": 7.15934e-07, "vtx_h_y": 3.0597e-06, "vtx_h_z": 2.96301e-06, "uv_0_bbl_x": -0.1647, "uv_0_bbl_y": 0, "uv_0_h_x": 0.000153742, "uv_0_h_y": 0.000122085}}, "mesh": 19}, {"name": "Wheel_Back_L_metal_0", "extras": {"userData": {"attributes": 55, "vertex_bits": 12, "vertex_mode": 3, "uv_0_bits": 14, "uv_0_mode": 3, "epsilon": 0.25, "nphi": 720, "triangle_mode": 7, "vtx_bbl_x": 0.052959, "vtx_bbl_y": -0.153583, "vtx_bbl_z": -0.153126, "vtx_h_x": 2.18325e-05, "vtx_h_y": 0.00014961, "vtx_h_z": 0.00014961, "uv_0_bbl_x": 0, "uv_0_bbl_y": 0, "uv_0_h_x": 0.000122085, "uv_0_h_y": 0.000122085}}, "mesh": 20}, {"name": "Wheel_Break_Back_L", "children": [57]}, {"name": "Wheel_Break_Back_L", "children": [58, 59]}, {"name": "Wheel_Break_Back_L_Metal_dark_0", "extras": {"userData": {"attributes": 55, "vertex_bits": 16, "vertex_mode": 3, "uv_0_bits": 14, "uv_0_mode": 3, "epsilon": 0.25, "nphi": 720, "triangle_mode": 7, "vtx_bbl_x": 0.017632, "vtx_bbl_y": -0.178797, "vtx_bbl_z": -0.0425408, "vtx_h_x": 2.44914e-06, "vtx_h_y": 3.90185e-06, "vtx_h_z": 5.37139e-06, "uv_0_bbl_x": 0, "uv_0_bbl_y": 0, "uv_0_h_x": 0.000122085, "uv_0_h_y": 0.000122085}}, "mesh": 21}, {"name": "Wheel_Break_Back_L_metal_0", "extras": {"userData": {"attributes": 55, "vertex_bits": 16, "vertex_mode": 3, "uv_0_bits": 14, "uv_0_mode": 3, "epsilon": 0.25, "nphi": 720, "triangle_mode": 7, "vtx_bbl_x": 0.046112, "vtx_bbl_y": -0.160256, "vtx_bbl_z": -0.151582, "vtx_h_x": 1.18857e-06, "vtx_h_y": 9.75429e-06, "vtx_h_z": 9.5627e-06, "uv_0_bbl_x": 0, "uv_0_bbl_y": 0, "uv_0_h_x": 0.000122085, "uv_0_h_y": 0.000122085}}, "mesh": 22}, {"name": "Wheel_Back_Right", "translation": [-70, 33.29999923706055, -131.2790069580078], "rotation": [-0.7071068387878191, 0, 0, 0.7071067235852713], "scale": [100, 100.00000000000132, 100.00000000000132], "children": [61, 67]}, {"name": "Wheel_Back_R", "translation": [0.699999988079071, -3.933910193154588e-06, -1.7881400538044545e-07], "children": [62]}, {"name": "Wheel_Back_R", "children": [63, 64, 65, 66]}, {"name": "Wheel_Back_R_Rubber_0", "extras": {"userData": {"attributes": 55, "vertex_bits": 16, "vertex_mode": 3, "uv_0_bits": 16, "uv_0_mode": 3, "epsilon": 0.25, "nphi": 720, "triangle_mode": 7, "vtx_bbl_x": -0.889427, "vtx_bbl_y": -0.334081, "vtx_bbl_z": -0.334624, "vtx_h_x": 7.67611e-06, "vtx_h_y": 2.04244e-05, "vtx_h_z": 2.04244e-05, "uv_0_bbl_x": -1.5768, "uv_0_bbl_y": -1.5769, "uv_0_h_x": 0.000126762, "uv_0_h_y": 0.000126768}}, "mesh": 23}, {"name": "Wheel_Back_R_wheel_rim_0", "extras": {"userData": {"attributes": 55, "vertex_bits": 16, "vertex_mode": 3, "uv_0_bits": 14, "uv_0_mode": 3, "epsilon": 0.25, "nphi": 720, "triangle_mode": 7, "vtx_bbl_x": -0.887914, "vtx_bbl_y": -0.251625, "vtx_bbl_z": -0.251697, "vtx_h_x": 7.38996e-06, "vtx_h_y": 1.53638e-05, "vtx_h_z": 1.54013e-05, "uv_0_bbl_x": 0, "uv_0_bbl_y": 0, "uv_0_h_x": 0.000122085, "uv_0_h_y": 0.000122085}}, "mesh": 24}, {"name": "Wheel_Back_R_Car chrome_0", "extras": {"userData": {"attributes": 55, "vertex_bits": 16, "vertex_mode": 3, "uv_0_bits": 14, "uv_0_mode": 3, "epsilon": 0.25, "nphi": 720, "triangle_mode": 7, "vtx_bbl_x": -0.86507, "vtx_bbl_y": -0.0495572, "vtx_bbl_z": -0.0446598, "vtx_h_x": 7.15905e-07, "vtx_h_y": 3.0597e-06, "vtx_h_z": 2.96301e-06, "uv_0_bbl_x": -0.1647, "uv_0_bbl_y": 0, "uv_0_h_x": 0.000153742, "uv_0_h_y": 0.000122085}}, "mesh": 25}, {"name": "Wheel_Back_R_metal_0", "extras": {"userData": {"attributes": 55, "vertex_bits": 12, "vertex_mode": 3, "uv_0_bits": 14, "uv_0_mode": 3, "epsilon": 0.25, "nphi": 720, "triangle_mode": 7, "vtx_bbl_x": -0.797648, "vtx_bbl_y": -0.153121, "vtx_bbl_z": -0.153126, "vtx_h_x": 2.1832e-05, "vtx_h_y": 0.00014961, "vtx_h_z": 0.00014961, "uv_0_bbl_x": 0, "uv_0_bbl_y": 0, "uv_0_h_x": 0.000122085, "uv_0_h_y": 0.000122085}}, "mesh": 26}, {"name": "Wheel_Break_Back_R", "translation": [0.699999988079071, -3.933910193154588e-06, -1.7881400538044545e-07], "children": [68]}, {"name": "Wheel_Break_Back_R", "children": [69, 70]}, {"name": "Wheel_Break_Back_R_Metal_dark_0", "extras": {"userData": {"attributes": 55, "vertex_bits": 16, "vertex_mode": 3, "uv_0_bits": 14, "uv_0_mode": 3, "epsilon": 0.25, "nphi": 720, "triangle_mode": 7, "vtx_bbl_x": -0.797883, "vtx_bbl_y": -0.178797, "vtx_bbl_z": -0.0425408, "vtx_h_x": 2.44914e-06, "vtx_h_y": 3.90185e-06, "vtx_h_z": 5.37139e-06, "uv_0_bbl_x": 0, "uv_0_bbl_y": 0, "uv_0_h_x": 0.000122085, "uv_0_h_y": 0.000122085}}, "mesh": 27}, {"name": "Wheel_Break_Back_R_metal_0", "extras": {"userData": {"attributes": 55, "vertex_bits": 16, "vertex_mode": 3, "uv_0_bits": 14, "uv_0_mode": 3, "epsilon": 0.25, "nphi": 720, "triangle_mode": 7, "vtx_bbl_x": -0.785058, "vtx_bbl_y": -0.160256, "vtx_bbl_z": -0.151582, "vtx_h_x": 1.18857e-06, "vtx_h_y": 9.75429e-06, "vtx_h_z": 9.5627e-06, "uv_0_bbl_x": 0, "uv_0_bbl_y": 0, "uv_0_h_x": 0.000122085, "uv_0_h_y": 0.000122085}}, "mesh": 28}, {"name": "Wheel_Front_Left", "translation": [70, 33.29999923706055, 142.6999969482422], "rotation": [-0.6963643133275608, -0.12278770162964797, -0.12278772163433582, 0.6963641998754555], "scale": [100.0000299752634, 100.00002997526474, 100.00000000000132], "children": [72, 76]}, {"name": "Wheel_Break_Front_L", "children": [73]}, {"name": "Wheel_Break_Front_L", "children": [74, 75]}, {"name": "Wheel_Break_Front_L_Metal_dark_0", "extras": {"userData": {"attributes": 55, "vertex_bits": 12, "vertex_mode": 3, "uv_0_bits": 14, "uv_0_mode": 3, "epsilon": 0.25, "nphi": 720, "triangle_mode": 7, "vtx_bbl_x": 0.017633, "vtx_bbl_y": 0.077256, "vtx_bbl_z": -0.0880632, "vtx_h_x": 3.92037e-05, "vtx_h_y": 4.86776e-05, "vtx_h_z": 8.58525e-05, "uv_0_bbl_x": 0, "uv_0_bbl_y": 0, "uv_0_h_x": 0.000122085, "uv_0_h_y": 0.000122085}}, "mesh": 29}, {"name": "Wheel_Break_Front_L_metal_0", "extras": {"userData": {"attributes": 55, "vertex_bits": 16, "vertex_mode": 3, "uv_0_bits": 14, "uv_0_mode": 3, "epsilon": 0.25, "nphi": 720, "triangle_mode": 7, "vtx_bbl_x": 0.046113, "vtx_bbl_y": -0.159357, "vtx_bbl_z": -0.151583, "vtx_h_x": 1.18857e-06, "vtx_h_y": 9.4799e-06, "vtx_h_z": 9.5627e-06, "uv_0_bbl_x": 0, "uv_0_bbl_y": 0, "uv_0_h_x": 0.000122085, "uv_0_h_y": 0.000122085}}, "mesh": 30}, {"name": "Wheel_Front_L", "children": [77]}, {"name": "Wheel_Front_L", "children": [78, 79, 80, 81]}, {"name": "Wheel_Front_L_Rubber_0", "extras": {"userData": {"attributes": 55, "vertex_bits": 16, "vertex_mode": 3, "uv_0_bits": 16, "uv_0_mode": 3, "uv_1_bits": 14, "uv_1_mode": 3, "epsilon": 0.25, "nphi": 720, "triangle_mode": 7, "vtx_bbl_x": -0.062095, "vtx_bbl_y": -0.333623, "vtx_bbl_z": -0.334623, "vtx_h_x": 7.67608e-06, "vtx_h_y": 2.04244e-05, "vtx_h_z": 2.04244e-05, "uv_0_bbl_x": -1.5768, "uv_0_bbl_y": -1.5769, "uv_0_h_x": 0.000126762, "uv_0_h_y": 0.000126768, "uv_1_bbl_x": 0.165377, "uv_1_bbl_y": 0.165377, "uv_1_h_x": 8.1705e-05, "uv_1_h_y": 8.1705e-05}}, "mesh": 31}, {"name": "Wheel_Front_L_metal_0", "extras": {"userData": {"attributes": 55, "vertex_bits": 12, "vertex_mode": 3, "uv_0_bits": 14, "uv_0_mode": 3, "uv_1_bits": 14, "uv_1_mode": 3, "epsilon": 0.25, "nphi": 720, "triangle_mode": 7, "vtx_bbl_x": 0.052959, "vtx_bbl_y": -0.153125, "vtx_bbl_z": -0.153126, "vtx_h_x": 2.1832e-05, "vtx_h_y": 0.00014961, "vtx_h_z": 0.00014961, "uv_0_bbl_x": 0, "uv_0_bbl_y": 0, "uv_0_h_x": 0.000122085, "uv_0_h_y": 0.000122085, "uv_1_bbl_x": 0, "uv_1_bbl_y": 0, "uv_1_h_x": 0.000122085, "uv_1_h_y": 0.000122085}}, "mesh": 32}, {"name": "Wheel_Front_L_wheel_rim_0", "extras": {"userData": {"attributes": 55, "vertex_bits": 16, "vertex_mode": 3, "uv_0_bits": 14, "uv_0_mode": 3, "uv_1_bits": 14, "uv_1_mode": 3, "epsilon": 0.25, "nphi": 720, "triangle_mode": 7, "vtx_bbl_x": -0.054232, "vtx_bbl_y": -0.251796, "vtx_bbl_z": -0.251698, "vtx_h_x": 7.38996e-06, "vtx_h_y": 1.53638e-05, "vtx_h_z": 1.54013e-05, "uv_0_bbl_x": 0, "uv_0_bbl_y": 0, "uv_0_h_x": 0.000122085, "uv_0_h_y": 0.000122085, "uv_1_bbl_x": 0, "uv_1_bbl_y": 0, "uv_1_h_x": 0.000122085, "uv_1_h_y": 0.000122085}}, "mesh": 33}, {"name": "Wheel_Front_L_Car chrome_0", "extras": {"userData": {"attributes": 55, "vertex_bits": 16, "vertex_mode": 3, "uv_0_bits": 14, "uv_0_mode": 3, "uv_1_bits": 12, "uv_1_mode": 3, "epsilon": 0.25, "nphi": 720, "triangle_mode": 7, "vtx_bbl_x": 0.141611, "vtx_bbl_y": -0.051011, "vtx_bbl_z": -0.0446602, "vtx_h_x": 7.15934e-07, "vtx_h_y": 3.0597e-06, "vtx_h_z": 2.96304e-06, "uv_0_bbl_x": -0.1647, "uv_0_bbl_y": 0, "uv_0_h_x": 0.000153742, "uv_0_h_y": 0.000122085, "uv_1_bbl_x": 0.449938, "uv_1_bbl_y": 0.451537, "uv_1_h_x": 4.88999e-05, "uv_1_h_y": 4.76827e-05}}, "mesh": 34}, {"name": "Wheel_Front_R.ight", "translation": [-70, 33.29999923706055, 142.6999969482422], "rotation": [-0.6903455674623366, -0.1530458012919814, -0.15304580798181977, 0.6903455372863612], "scale": [100.00000625242875, 100.00000625242883, 100.0000000000001], "children": [83, 87]}, {"name": "Wheel_Break_Front_R", "children": [84]}, {"name": "Wheel_Break_Front_R", "children": [85, 86]}, {"name": "Wheel_Break_Front_R_Metal_dark_0", "extras": {"userData": {"attributes": 55, "vertex_bits": 12, "vertex_mode": 3, "uv_0_bits": 14, "uv_0_mode": 3, "epsilon": 0.25, "nphi": 720, "triangle_mode": 7, "vtx_bbl_x": -0.097883, "vtx_bbl_y": 0.077256, "vtx_bbl_z": -0.0880632, "vtx_h_x": 3.92037e-05, "vtx_h_y": 4.86776e-05, "vtx_h_z": 8.58525e-05, "uv_0_bbl_x": 0, "uv_0_bbl_y": 0, "uv_0_h_x": 0.000122085, "uv_0_h_y": 0.000122085}}, "mesh": 35}, {"name": "Wheel_Break_Front_R_metal_0", "extras": {"userData": {"attributes": 55, "vertex_bits": 16, "vertex_mode": 3, "uv_0_bits": 14, "uv_0_mode": 3, "epsilon": 0.25, "nphi": 720, "triangle_mode": 7, "vtx_bbl_x": -0.085059, "vtx_bbl_y": -0.15971, "vtx_bbl_z": -0.152515, "vtx_h_x": 1.18858e-06, "vtx_h_y": 9.49068e-06, "vtx_h_z": 9.57465e-06, "uv_0_bbl_x": 0, "uv_0_bbl_y": 0, "uv_0_h_x": 0.000122085, "uv_0_h_y": 0.000122085}}, "mesh": 36}, {"name": "Wheel_Front_R", "children": [88]}, {"name": "Wheel_Front_R", "children": [89, 90, 91, 92]}, {"name": "Wheel_Front_R_Rubber_0", "extras": {"userData": {"attributes": 55, "vertex_bits": 16, "vertex_mode": 3, "uv_0_bits": 16, "uv_0_mode": 3, "epsilon": 0.25, "nphi": 720, "triangle_mode": 7, "vtx_bbl_x": -0.189427, "vtx_bbl_y": -0.333623, "vtx_bbl_z": -0.334624, "vtx_h_x": 7.67611e-06, "vtx_h_y": 2.04244e-05, "vtx_h_z": 2.04244e-05, "uv_0_bbl_x": -1.5768, "uv_0_bbl_y": -1.5769, "uv_0_h_x": 0.000126762, "uv_0_h_y": 0.000126768}}, "mesh": 37}, {"name": "Wheel_Front_R_metal_0", "extras": {"userData": {"attributes": 55, "vertex_bits": 12, "vertex_mode": 3, "uv_0_bits": 14, "uv_0_mode": 3, "epsilon": 0.25, "nphi": 720, "triangle_mode": 7, "vtx_bbl_x": -0.097649, "vtx_bbl_y": -0.152664, "vtx_bbl_z": -0.153126, "vtx_h_x": 2.1832e-05, "vtx_h_y": 0.00014961, "vtx_h_z": 0.00014961, "uv_0_bbl_x": 0, "uv_0_bbl_y": 0, "uv_0_h_x": 0.000122085, "uv_0_h_y": 0.000122085}}, "mesh": 38}, {"name": "Wheel_Front_R_wheel_rim_0", "extras": {"userData": {"attributes": 55, "vertex_bits": 16, "vertex_mode": 3, "uv_0_bits": 14, "uv_0_mode": 3, "epsilon": 0.25, "nphi": 720, "triangle_mode": 7, "vtx_bbl_x": -0.187915, "vtx_bbl_y": -0.251167, "vtx_bbl_z": -0.251698, "vtx_h_x": 7.38996e-06, "vtx_h_y": 1.53638e-05, "vtx_h_z": 1.54013e-05, "uv_0_bbl_x": 0, "uv_0_bbl_y": 0, "uv_0_h_x": 0.000122085, "uv_0_h_y": 0.000122085}}, "mesh": 39}, {"name": "Wheel_Front_R_Car chrome_0", "extras": {"userData": {"attributes": 55, "vertex_bits": 16, "vertex_mode": 3, "uv_0_bits": 14, "uv_0_mode": 3, "epsilon": 0.25, "nphi": 720, "triangle_mode": 7, "vtx_bbl_x": -0.165072, "vtx_bbl_y": -0.0489624, "vtx_bbl_z": -0.0446613, "vtx_h_x": 7.15934e-07, "vtx_h_y": 3.05969e-06, "vtx_h_z": 2.96304e-06, "uv_0_bbl_x": -0.1647, "uv_0_bbl_y": 0, "uv_0_h_x": 0.000153742, "uv_0_h_y": 0.000122085}}, "mesh": 40}, {"name": "Plastic", "rotation": [-0.7071068387878191, 0, 0, 0.7071067235852713], "scale": [100, 100.00000000000132, 100.00000000000132], "children": [94]}, {"name": "Plastic", "children": [95, 96]}, {"name": "Plastic_Plastic_0", "extras": {"userData": {"attributes": 55, "vertex_bits": 20, "vertex_mode": 3, "uv_0_bits": 14, "uv_0_mode": 3, "uv_1_bits": 16, "uv_1_mode": 3, "epsilon": 0.25, "nphi": 720, "triangle_mode": 7, "vertex_obits": 20, "vtx_bbl_x": -0.873512, "vtx_bbl_y": -2.22443, "vtx_bbl_z": 0.13378, "vtx_h_x": 3.33219e-06, "vtx_h_y": 8.49657e-06, "vtx_h_z": 1.1359e-06, "uv_0_bbl_x": 0, "uv_0_bbl_y": 0, "uv_0_h_x": 0.000122085, "uv_0_h_y": 0.000122085, "uv_1_bbl_x": -1.70245, "uv_1_bbl_y": -1.7264, "uv_1_h_x": 0.000133436, "uv_1_h_y": 0.000135757}}, "mesh": 41}, {"name": "Plastic_Plastic_0", "extras": {"userData": {"attributes": 55, "vertex_bits": 20, "vertex_mode": 3, "uv_0_bits": 14, "uv_0_mode": 3, "uv_1_bits": 16, "uv_1_mode": 3, "epsilon": 0.25, "nphi": 720, "triangle_mode": 7, "vertex_obits": 20, "vtx_bbl_x": -0.873512, "vtx_bbl_y": -2.22443, "vtx_bbl_z": 0.13378, "vtx_h_x": 3.33219e-06, "vtx_h_y": 8.49657e-06, "vtx_h_z": 1.1359e-06, "uv_0_bbl_x": 0, "uv_0_bbl_y": 0, "uv_0_h_x": 0.000122085, "uv_0_h_y": 0.000122085, "uv_1_bbl_x": -1.70245, "uv_1_bbl_y": -1.7264, "uv_1_h_x": 0.000133436, "uv_1_h_y": 0.000135757}}, "mesh": 42}, {"name": "Body", "rotation": [-0.7071068387878191, 0, 0, 0.7071067235852713], "scale": [100, 100.00000000000132, 100.00000000000132], "children": [98]}, {"name": "Body", "children": [99, 100]}, {"name": "Body_Body_paint_0", "extras": {"userData": {"attributes": 55, "vertex_bits": 20, "vertex_mode": 3, "uv_0_bits": 14, "uv_0_mode": 3, "uv_1_bits": 16, "uv_1_mode": 3, "epsilon": 0.25, "nphi": 720, "triangle_mode": 7, "vertex_obits": 20, "vtx_bbl_x": -0.933069, "vtx_bbl_y": -2.23283, "vtx_bbl_z": 0.19883, "vtx_h_x": 3.55938e-06, "vtx_h_y": 8.50632e-06, "vtx_h_z": 2.1681e-06, "uv_0_bbl_x": 0, "uv_0_bbl_y": 0, "uv_0_h_x": 0.000122085, "uv_0_h_y": 0.000122085, "uv_1_bbl_x": -1.70453, "uv_1_bbl_y": -1.72942, "uv_1_h_x": 0.000131414, "uv_1_h_y": 0.000136087}}, "mesh": 43}, {"name": "Body_Body_paint_0", "extras": {"userData": {"attributes": 55, "vertex_bits": 20, "vertex_mode": 3, "uv_0_bits": 14, "uv_0_mode": 3, "uv_1_bits": 16, "uv_1_mode": 3, "epsilon": 0.25, "nphi": 720, "triangle_mode": 7, "vertex_obits": 20, "vtx_bbl_x": -0.933069, "vtx_bbl_y": -2.23283, "vtx_bbl_z": 0.19883, "vtx_h_x": 3.55938e-06, "vtx_h_y": 8.50632e-06, "vtx_h_z": 2.1681e-06, "uv_0_bbl_x": 0, "uv_0_bbl_y": 0, "uv_0_h_x": 0.000122085, "uv_0_h_y": 0.000122085, "uv_1_bbl_x": -1.70453, "uv_1_bbl_y": -1.72942, "uv_1_h_x": 0.000131414, "uv_1_h_y": 0.000136087}}, "mesh": 44}, {"name": "Interior", "rotation": [-0.7071068387878191, 0, 0, 0.7071067235852713], "scale": [100, 100.00000000000132, 100.00000000000132], "children": [102]}, {"name": "Interior", "children": [103, 104]}, {"name": "Interior_plastic_matt_0", "extras": {"userData": {"attributes": 55, "vertex_bits": 12, "vertex_mode": 3, "uv_0_bits": 14, "uv_0_mode": 3, "uv_1_bits": 14, "uv_1_mode": 3, "uv_2_bits": 14, "uv_2_mode": 3, "epsilon": 0.25, "nphi": 720, "triangle_mode": 7, "vertex_obits": 14, "vtx_bbl_x": -0.762249, "vtx_bbl_y": -0.925172, "vtx_bbl_z": 0.266809, "vtx_h_x": 0.00074474, "vtx_h_y": 0.000240283, "vtx_h_z": 0.000452143, "uv_0_bbl_x": -8.9407e-08, "uv_0_bbl_y": 0, "uv_0_h_x": 0.000123039, "uv_0_h_y": 0.000122085, "uv_1_bbl_x": 0, "uv_1_bbl_y": 0, "uv_1_h_x": 0.000106825, "uv_1_h_y": 9.15639e-05, "uv_2_bbl_x": 0, "uv_2_bbl_y": 0, "uv_2_h_x": 0.000106825, "uv_2_h_y": 9.15639e-05}}, "mesh": 45}, {"name": "Interior_mirrow_0", "extras": {"userData": {"attributes": 55, "vertex_bits": 8, "vertex_mode": 3, "uv_0_bits": 8, "uv_0_mode": 3, "uv_1_bits": 8, "uv_1_mode": 3, "uv_2_bits": 8, "uv_2_mode": 3, "epsilon": 0.25, "nphi": 720, "triangle_mode": 7, "vertex_obits": 9, "vtx_bbl_x": -0.11507, "vtx_bbl_y": -0.289865, "vtx_bbl_z": 1.12633, "vtx_h_x": 0.00074474, "vtx_h_y": 0.000240283, "vtx_h_z": 0.000452143, "uv_0_bbl_x": 0.378906, "uv_0_bbl_y": 0.535156, "uv_0_h_x": 2.99138e-05, "uv_0_h_y": 4.2217e-05, "uv_1_bbl_x": 0, "uv_1_bbl_y": 0, "uv_1_h_x": 7.87402e-08, "uv_1_h_y": 7.87402e-08, "uv_2_bbl_x": 0, "uv_2_bbl_y": 0, "uv_2_h_x": 7.87402e-08, "uv_2_h_y": 7.87402e-08}}, "mesh": 46}, {"name": "Sketchfab_model", "translation": [47.11601257324219, -13.834235191345215, -414.2200622558594], "rotation": [-0.53332169831342, -0.23784301712329847, -0.3228997545395472, 0.7448049520399297], "children": [0]}], "scenes": [{"name": "Scene", "nodes": [105]}], "extensionsUsed": ["KHR_materials_specular", "KHR_materials_transmission"]}