<?xml version="1.0" encoding="UTF-8" standalone="no"?>
<!-- Created with Inkscape (http://www.inkscape.org/) -->

<svg
   version="1.1"
   id="svg1"
   width="297.2691"
   height="344.31946"
   viewBox="0 0 297.2691 344.31946"
   sodipodi:docname="Recirc.png"
   xml:space="preserve"
   inkscape:export-filename="Recirc.svg"
   inkscape:export-xdpi="96"
   inkscape:export-ydpi="96"
   inkscape:export-batch-path="/home/asrs-automation/Pictures"
   inkscape:export-batch-name="Recirc"
   xmlns:inkscape="http://www.inkscape.org/namespaces/inkscape"
   xmlns:sodipodi="http://sodipodi.sourceforge.net/DTD/sodipodi-0.dtd"
   xmlns="http://www.w3.org/2000/svg"
   xmlns:svg="http://www.w3.org/2000/svg"><defs
     id="defs1" /><sodipodi:namedview
     id="namedview1"
     pagecolor="#ffffff"
     bordercolor="#000000"
     borderopacity="0.25"
     inkscape:showpageshadow="2"
     inkscape:pageopacity="0.0"
     inkscape:pagecheckerboard="0"
     inkscape:deskcolor="#d1d1d1"
     inkscape:export-bgcolor="#ffffff00"><inkscape:page
       x="0"
       y="0"
       width="297.2691"
       height="344.31946"
       id="page1"
       margin="0"
       bleed="0" /></sodipodi:namedview><g
     inkscape:groupmode="layer"
     inkscape:label="Image"
     id="g1"
     transform="translate(141.35288,490.99308)"><path
       style="fill:#ffffff;fill-opacity:1"
       d="m -84.430225,-146.7612 c -6.902068,0.27183 -9.379612,-0.0419 -12.731249,-1.61212 -2.28881,-1.07229 -5.903736,-3.69189 -8.033166,-5.82132 -2.12942,-2.12942 -4.73797,-5.65676 -5.79677,-7.83852 -1.15001,-2.3697 -2.08398,-6.83479 -2.31974,-11.09001 -0.30674,-5.53664 0.0429,-8.11239 1.56997,-11.5645 1.08053,-2.44273 14.514335,-22.344 29.852893,-44.22504 15.338558,-21.88105 29.913287,-42.28327 32.388287,-45.33827 2.631715,-3.24844 6.78346,-6.84044 10,-8.65178 L -34,-286 l 40.7373625,-0.29213 40.7373625,-0.29213 1.031785,-1.9279 c 0.567483,-1.06035 8.279475,-23.4289 17.137763,-49.70788 8.858287,-26.27898 17.149743,-49.85331 18.425459,-52.3874 1.275716,-2.5341 3.56352,-6.0859 5.08401,-7.8929 1.52049,-1.807 5.032917,-4.34176 7.805393,-5.63279 3.891385,-1.81207 6.751105,-2.34455 12.540865,-2.33514 5.13589,0.008 8.78147,0.59423 11.56538,1.85868 2.23595,1.01557 5.66663,3.25241 7.62372,4.97076 1.95709,1.71835 4.57879,5.49005 5.82599,8.38155 1.58862,3.68304 2.2659,7.20364 2.26185,11.75728 -0.005,5.61572 -1.39906,10.58128 -10.2473,36.5 -5.63284,16.5 -15.08361,44.63736 -21.00173,62.52746 -5.918108,17.8901 -11.687847,34.3458 -12.821638,36.56821 -1.133791,2.22242 -3.944874,5.74233 -6.24685,7.82202 -2.301976,2.0797 -6.047064,4.62662 -8.322417,5.65983 -3.842553,1.74485 -7.238057,1.88012 -47.706359,1.90052 l -43.569353,0.022 -5.109121,6.84919 c -2.810016,3.76705 -13.07492,18.50455 -22.810898,32.75 -9.735978,14.24545 -19.443624,28.24461 -21.572546,31.10925 -2.128922,2.86465 -5.97641,6.44244 -8.549972,7.95064 -3.915252,2.29449 -6.078356,2.79731 -13.248981,3.07972 z m -0.287656,-9.78269 c 1.805165,0.0241 4.737195,-0.56408 6.515623,-1.30715 1.778427,-0.74308 4.576474,-2.88552 6.217881,-4.76099 1.641407,-1.87547 9.25517,-12.63 16.919473,-23.89896 7.664303,-11.26895 18.215558,-26.55525 23.447232,-33.96955 5.231674,-7.41429 10.614091,-14.50179 11.960926,-15.75 l 2.448791,-2.26946 h 42.411158 c 28.831722,0 43.884486,-0.37099 47.012645,-1.15867 2.964142,-0.74638 5.879391,-2.45184 8.19282,-4.79293 3.337644,-3.37754 5.100667,-8.17739 24.958212,-67.94901 18.72256,-56.35529 21.31023,-64.90441 20.90907,-69.07931 -0.25998,-2.70568 -1.42719,-6.12592 -2.7011,-7.91496 -1.2338,-1.73272 -3.98746,-4.04021 -6.11923,-5.12776 -2.19453,-1.11957 -5.8669,-1.97736 -8.46544,-1.97736 -2.52423,0 -5.85035,0.65201 -7.3914,1.44892 -1.54104,0.7969 -4.166728,3.00338 -5.83486,4.90327 -2.36843,2.6975 -5.141271,9.77482 -12.65532,32.30109 -5.292294,15.86569 -13.406272,39.85932 -18.031063,53.31916 -5.883519,17.1232 -9.067942,25.00625 -10.603907,26.25 -2.021877,1.63721 -5.364379,1.778 -42.334414,1.78314 -24.204971,0.003 -41.597402,0.41058 -43.812464,1.02581 -2.410443,0.66949 -5.33261,2.84839 -8.5,6.33797 -2.654714,2.92476 -13.579063,17.87565 -24.276331,33.22419 -10.697269,15.34855 -23.185563,33.14089 -27.751764,39.53855 -4.566202,6.39765 -8.976387,13.2457 -9.800417,15.21788 -0.82403,1.97218 -1.49824,5.19316 -1.49824,7.15774 0,1.96458 0.85212,5.24153 1.89359,7.28212 1.04148,2.04059 2.811687,4.54045 3.933804,5.55524 1.122118,1.0148 3.757502,2.45754 5.85641,3.20611 2.098908,0.74856 5.293149,1.38078 7.098315,1.40492 z M -96.049432,-267.5 c -0.374503,0 -1.75913,-1.2375 -3.076948,-2.75 -1.31782,-1.5125 -5.67512,-7.475 -9.68288,-13.25 -4.00777,-5.775 -12.78126,-18.31071 -19.49664,-27.85714 -6.71537,-9.54642 -12.49909,-18.50984 -12.85269,-19.91871 -0.48758,-1.94267 -0.0965,-3.00405 1.61862,-4.39287 1.83255,-1.4839 4.03932,-1.83128 11.63358,-1.83128 h 9.37205 l 0.26717,-25.25 L -118,-388 l 21.659322,-0.26925 c 18.707448,-0.23255 21.876109,-0.0525 23.25,1.32143 1.365603,1.3656 1.590678,4.97649 1.590678,25.51925 V -337.5 h 8.865141 c 7.492329,0 9.278659,0.32527 11.535491,2.1005 1.965011,1.54567 2.497061,2.64648 2.014294,4.16754 -0.360831,1.13688 -8.110077,12.67916 -17.220548,25.64951 -9.110471,12.97035 -18.544122,26.3994 -20.96367,29.84235 -2.419547,3.44294 -5.231688,6.70544 -6.249201,7.25 -1.017513,0.54455 -2.156436,0.9901 -2.530939,0.9901 z m 1.744798,-15.79537 c 0.513722,-0.51372 7.653261,-10.55742 15.865644,-22.31933 L -63.507386,-327 l -7.698923,-0.29571 c -4.234408,-0.16264 -8.282746,-0.78024 -8.996307,-1.37245 -0.999648,-0.82963 -1.297384,-6.79399 -1.297384,-25.98963 v -24.91289 l -13.5,0.1638 -13.5,0.16381 v 24.67154 c 0,17.85563 -0.33152,25.00305 -1.2,25.87153 -0.73947,0.73947 -4.36738,1.2 -9.4532,1.2 h -8.2532 l 10.80516,15.31177 c 5.94284,8.42148 13.18057,18.57768 16.08386,22.56934 3.270622,4.4967 5.634027,6.90224 6.212746,6.32352 z M 121.48592,-416.98822 c -4.1737,0.30926 -8.43802,-0.0661 -11.96168,-1.05288 -3.01166,-0.8434 -7.3243,-2.61678 -9.583639,-3.94084 -2.259339,-1.32406 -5.74198,-4.21613 -7.739205,-6.42682 -1.997224,-2.21069 -4.737023,-6.20144 -6.088443,-8.86834 -1.35142,-2.6669 -2.963478,-7.64126 -3.582351,-11.05414 -0.793724,-4.37712 -0.823964,-7.83489 -0.102643,-11.73687 0.562419,-3.04241 1.908556,-7.53454 2.991417,-9.98253 1.08286,-2.44799 4.236945,-6.84907 7.009077,-9.78019 2.772132,-2.93112 7.634787,-6.64013 10.805897,-8.24224 5.21844,-2.63646 6.71474,-2.91358 15.76565,-2.91992 8.94256,-0.006 10.6046,0.28989 15.71758,2.80068 3.14467,1.54422 7.78612,4.81808 10.31435,7.27523 2.66237,2.58753 5.92999,7.29745 7.76495,11.19231 2.75778,5.85363 3.16144,7.7611 3.11611,14.72477 -0.0286,4.4 -0.57081,9.8 -1.2048,12 -0.63399,2.2 -2.62769,6.4594 -4.43045,9.46533 -1.80276,3.00594 -5.42019,7.08132 -8.03874,9.05642 -2.61855,1.97509 -6.89989,4.36021 -9.51408,5.30026 -2.61419,0.94005 -7.67174,1.92544 -11.239,2.18977 z m -0.74202,-10.00564 c 3.15914,-0.26081 7.27194,-1.11266 9.13956,-1.893 1.86762,-0.78034 5.20201,-3.05072 7.40976,-5.04529 2.20775,-1.99457 5.02273,-5.7508 6.25551,-8.34717 1.6212,-3.41443 2.2636,-6.66582 2.32155,-11.75024 0.0661,-5.80266 -0.41779,-8.04727 -2.77273,-12.86058 -1.97629,-4.0394 -4.21656,-6.79565 -7.29115,-8.97045 -2.44106,-1.72667 -5.87111,-3.66767 -7.62234,-4.31333 -1.75123,-0.64566 -5.88406,-1.20376 -9.18406,-1.24023 -4.34027,-0.048 -7.38311,0.58867 -11,2.30146 -2.75,1.30227 -6.43704,3.88538 -8.193422,5.74023 -1.756383,1.85485 -4.109,5.39746 -5.228038,7.87246 -1.417549,3.13522 -2.041277,6.63926 -2.056578,11.55366 -0.01748,5.6129 0.506708,8.11455 2.566304,12.24763 1.423547,2.85668 4.447267,6.7852 6.719374,8.73005 2.27212,1.94484 6.1699,4.19149 8.66174,4.99254 2.8071,0.9024 6.71569,1.27607 10.27452,0.98226 z"
       id="path17" /></g></svg>
